<svg width="100" height="100" viewBox="0 0 100 100" fill="none" xmlns="http://www.w3.org/2000/svg">
<path d="M82.179 65.6492C81.7071 66.8174 81.2383 67.989 80.7387 69.1457C80.6833 69.2741 80.6322 69.4119 80.5446 69.5215" stroke="white" stroke-width="2" stroke-linecap="round"/>
<path d="M80.5696 68.7923C80.1836 69.5738 79.8315 70.3882 79.369 71.1294C79.2592 71.3053 79.1433 71.4775 79.04 71.6574C78.9207 71.8653 78.8041 72.0698 78.6754 72.2721C78.5613 72.4514 78.4558 72.6601 78.3136 72.8183C78.1535 72.9963 78.0116 73.1858 77.8589 73.37C77.6713 73.5964 77.4839 73.822 77.3057 74.0559C77.1473 74.264 76.9691 74.4608 76.8454 74.6915C76.6537 75.0493 76.4096 75.3784 76.1567 75.6945" stroke="white" stroke-width="2" stroke-linecap="round"/>
<path d="M74.9498 76.8009C74.4081 77.4829 73.8528 78.1543 73.3056 78.832C73.213 78.9467 73.1111 79.0526 73.0206 79.1694C72.8296 79.416 72.6067 79.643 72.3725 79.849C72.1961 80.0041 72.0085 80.1548 71.8179 80.2918C71.4365 80.566 71.0888 80.8798 70.7227 81.1733C70.5069 81.3462 70.2805 81.5032 70.0689 81.6817C69.9241 81.804 69.7809 81.9266 69.6233 82.0324C69.4459 82.1515 69.256 82.2505 69.0743 82.3628C68.5284 82.7001 67.9925 83.037 67.4881 83.4349C67.2697 83.6071 67.0538 83.7826 66.8357 83.9553C66.6123 84.1321 66.3814 84.2953 66.1547 84.4672C65.9975 84.5865 65.8408 84.71 65.6867 84.8332C65.6559 84.8579 65.6239 84.8821 65.5959 84.9101" stroke="white" stroke-width="2" stroke-linecap="round"/>
<path d="M62.9055 87.3743L65.068 85.8656" stroke="white" stroke-width="2" stroke-linecap="round"/>
<path d="M50.0439 93.1827C50.6681 92.9127 51.294 92.6463 51.9158 92.3711C52.0435 92.3146 52.1673 92.2515 52.2965 92.1985C52.4353 92.1416 52.5582 92.0869 52.6897 92.0148C52.83 91.938 52.9758 91.8854 53.1095 91.7955C53.2004 91.7345 53.3005 91.6864 53.3945 91.63C53.819 91.3753 54.2418 91.1243 54.679 90.8917C54.7911 90.832 54.8993 90.7703 54.9996 90.692C55.1169 90.6002 55.242 90.5508 55.3732 90.4852C55.4804 90.4316 55.57 90.3529 55.6834 90.3106C55.7827 90.2735 55.8765 90.237 55.9718 90.1905C56.1212 90.1174 56.2701 90.0475 56.4174 89.9704C56.5925 89.8789 56.7757 89.8124 56.9588 89.7378C57.1843 89.646 57.4184 89.571 57.6405 89.471C57.7229 89.4339 57.8085 89.3986 57.8891 89.3579C57.9842 89.3098 58.0639 89.2378 58.1559 89.1847C58.2536 89.1283 58.3517 89.0503 58.4311 88.9709C58.4609 88.9412 58.5049 88.9089 58.5429 88.8899C58.5745 88.8741 58.598 88.884 58.6428 88.8836C58.7752 88.8825 59.2353 88.8829 59.3098 88.8829C59.5638 88.8829 59.8178 88.8829 60.0718 88.8829C60.3277 88.8829 60.5836 88.8829 60.8394 88.8829C61.0774 88.8829 61.3153 88.8829 61.5533 88.8829C61.5859 88.8829 61.6243 88.9016 61.651 88.8829C61.7286 88.8287 61.7497 88.6399 61.7586 88.5896C61.7928 88.3969 61.8289 88.0348 61.8564 87.8422C61.8663 87.7727 61.8846 87.5911 61.9346 87.5056C61.9591 87.4637 62.0562 87.4343 62.1009 87.412" stroke="white" stroke-width="2" stroke-linecap="round"/>
<path d="M65 86.25L50 93.125V92.5L50.625 91.875V82.5V79.375L50 77.5V70.625H50.625L51.875 70L53.75 69.375L54.375 68.75L55.625 67.5L56.25 66.25H57.5H65.625V63.75V61.25V56.25V53.75V51.25V48.125V46.875L65 46.25V45L64.375 43.75V43.125L63.75 42.5L62.5 40.625L61.875 40L60.625 38.75L59.375 37.5L58.125 36.875V36.25L58.75 34.375H59.375H66.25V30.625H58.75V30L57.5 27.5L55 25.625L52.5 24.375L50 23.75V6.25H51.25L80 15L87.5 17.5L90 18.75V21.25V33.75L88.75 46.25L86.25 56.25L81.25 67.5L75 76.875L65 86.25Z" fill="white"/>
<rect x="21.25" y="27.5" width="28.75" height="35" fill="#1669AA"/>
<path d="M50 37.5C49.3434 37.5 48.6932 37.3707 48.0866 37.1194C47.48 36.8681 46.9288 36.4998 46.4645 36.0355C46.0002 35.5712 45.6319 35.02 45.3806 34.4134C45.1293 33.8068 45 33.1566 45 32.5C45 31.8434 45.1293 31.1932 45.3806 30.5866C45.6319 29.98 46.0002 29.4288 46.4645 28.9645C46.9288 28.5002 47.48 28.1319 48.0866 27.8806C48.6932 27.6293 49.3434 27.5 50 27.5L50 32.5L50 37.5Z" fill="#1669AA"/>
<path d="M50 67.5C49.3434 67.5 48.6932 67.2898 48.0866 66.8815C47.48 66.4732 46.9288 65.8747 46.4645 65.1202C46.0002 64.3658 45.6319 63.4701 45.3806 62.4843C45.1293 61.4985 45 60.442 45 59.375C45 58.308 45.1293 57.2515 45.3806 56.2657C45.6319 55.2799 46.0002 54.3842 46.4645 53.6298C46.9288 52.8753 47.48 52.2768 48.0866 51.8685C48.6932 51.4602 49.3434 51.25 50 51.25L50 59.375L50 67.5Z" fill="#1669AA"/>
<path d="M50 27.5C50.6566 27.5 51.3068 27.6293 51.9134 27.8806C52.52 28.1319 53.0712 28.5002 53.5355 28.9645C53.9998 29.4288 54.3681 29.98 54.6194 30.5866C54.8707 31.1932 55 31.8434 55 32.5C55 33.1566 54.8707 33.8068 54.6194 34.4134C54.3681 35.02 53.9998 35.5712 53.5355 36.0355C53.0712 36.4998 52.52 36.8681 51.9134 37.1194C51.3068 37.3707 50.6566 37.5 50 37.5L50 32.5L50 27.5Z" fill="white"/>
<path d="M50 51.25C50.6566 51.25 51.3068 51.4602 51.9134 51.8685C52.52 52.2768 53.0712 52.8753 53.5355 53.6298C53.9998 54.3842 54.3681 55.2799 54.6194 56.2657C54.8707 57.2515 55 58.308 55 59.375C55 60.442 54.8707 61.4985 54.6194 62.4843C54.3681 63.4701 53.9998 64.3658 53.5355 65.1202C53.0712 65.8747 52.52 66.4732 51.9134 66.8815C51.3068 67.2898 50.6566 67.5 50 67.5L50 59.375L50 51.25Z" fill="white"/>
<path d="M49.8899 69.2309L27.7141 58.5825V34.7034L49.9009 24.044V5.61545L9.98882 17.4176C9.98882 17.4176 -0.000195503 79 49.9009 94.7363H50.0987L49.8899 69.2309Z" fill="#1669AA"/>
<path d="M49.8892 18.4396C49.5297 18.4366 49.186 18.2919 48.9328 18.0366C48.6796 17.7814 48.5376 17.4364 48.5376 17.0769V5.6044C48.5681 5.26555 48.7242 4.95036 48.9755 4.72083C49.2266 4.4913 49.5545 4.36401 49.8947 4.36401C50.235 4.36401 50.5628 4.4913 50.814 4.72083C51.0651 4.95036 51.2213 5.26555 51.2518 5.6044V17.0769C51.2518 17.2559 51.2166 17.4331 51.1481 17.5984C51.0796 17.7638 50.9792 17.9139 50.8527 18.0405C50.7262 18.167 50.576 18.2674 50.4107 18.3359C50.2453 18.4044 50.0682 18.4396 49.8892 18.4396Z" fill="#0C0A0A"/>
<path d="M49.8917 92.583C49.7127 92.5815 49.5358 92.5449 49.3711 92.4751C49.2063 92.4052 49.0568 92.3036 48.9313 92.1761C48.8058 92.0486 48.7067 91.8975 48.6396 91.7316C48.5725 91.5657 48.5386 91.3882 48.5401 91.2094V78.3082C48.5706 77.9694 48.7267 77.6542 48.9778 77.4247C49.2291 77.1951 49.557 77.0679 49.8972 77.0679C50.2375 77.0679 50.5653 77.1951 50.8165 77.4247C51.0676 77.6542 51.2238 77.9694 51.2543 78.3082V91.2094C51.2558 91.3892 51.2216 91.5676 51.1538 91.7342C51.086 91.9007 50.9858 92.0522 50.8591 92.18C50.7325 92.3077 50.5817 92.409 50.4157 92.4782C50.2497 92.5474 50.0716 92.583 49.8917 92.583Z" fill="#0C0A0A"/>
<path d="M58.1264 36.5682C62.9828 39.1816 66.25 44.0655 66.25 49.6591V66.9318H56.568C55.6121 69.4476 53.0322 71.25 50 71.25C46.9677 71.25 44.388 69.4476 43.432 66.9318H33.75V49.6591C33.75 44.0655 37.0172 39.1816 41.8735 36.5682C41.4979 35.9381 41.2045 35.2596 41.0068 34.5455H33.75V30.2273H41.0068C42.0376 26.5023 45.6733 23.75 50 23.75C54.3267 23.75 57.9623 26.5023 58.9932 30.2273H66.25V34.5455H58.9932C58.7954 35.2596 58.5022 35.9381 58.1264 36.5682ZM50 51.8182C48.7179 51.8182 47.6786 52.7848 47.6786 53.9773V64.7727C47.6786 65.9652 48.7179 66.9318 50 66.9318C51.2821 66.9318 52.3214 65.9652 52.3214 64.7727V53.9773C52.3214 52.7848 51.2821 51.8182 50 51.8182ZM50 36.7045C52.5642 36.7045 54.6429 34.7712 54.6429 32.3864C54.6429 30.0015 52.5642 28.0682 50 28.0682C47.4357 28.0682 45.3571 30.0015 45.3571 32.3864C45.3571 34.7712 47.4357 36.7045 50 36.7045Z" fill="#0C0A0A"/>
<path d="M50.0971 96.0995H49.8994C49.7575 96.0999 49.6166 96.0776 49.4817 96.0335C28.6026 89.4401 14.8884 73.6819 9.92136 50.4621C7.62025 39.526 7.18554 28.2795 8.63565 17.1984C8.67806 16.9431 8.79115 16.7049 8.96207 16.5106C9.13299 16.3165 9.35491 16.174 9.60267 16.0995L49.5148 4.30826C49.6424 4.29145 49.7717 4.29145 49.8994 4.30826H50.0971C50.2249 4.29305 50.354 4.29305 50.4817 4.30826L90.3829 16.1105C90.6306 16.185 90.8526 16.3275 91.0235 16.5216C91.1944 16.7159 91.3075 16.9541 91.3499 17.2094C92.8133 28.2844 92.3934 39.5271 90.1081 50.4621C85.0971 73.6819 71.4269 89.4401 50.5478 96.0335C50.4025 96.0817 50.2501 96.104 50.0971 96.0995ZM11.2071 18.4731C9.9745 28.9766 10.4345 39.6099 12.5697 49.9676C17.4049 72.3412 29.9983 86.9236 49.9983 93.3412C69.9873 86.9236 82.5808 72.3412 87.4159 49.9676C89.551 39.6099 90.0111 28.9766 88.7785 18.4731L49.9983 7.00058L11.2071 18.4731Z" fill="#0C0A0A"/>
<path d="M87.4219 25.7422C87.4219 26.6188 87.2736 27.4858 86.9863 28.2883C86.699 29.0909 86.2789 29.8114 85.7528 30.4042C85.2266 30.9971 84.6059 31.4493 83.9298 31.7322C83.2538 32.0151 82.5373 32.1226 81.8256 32.0478C80.5927 31.9198 79.2314 32.1477 78.4454 33.3191L70.2504 45.5309C69.9919 45.9177 69.6703 46.2337 69.3062 46.4586C68.9422 46.6836 68.5438 46.8125 68.1367 46.8371C67.7296 46.8617 67.3229 46.7814 66.9426 46.6014C66.5623 46.4214 66.2169 46.1457 65.9287 45.792C65.6405 45.4383 65.4159 45.0144 65.2692 44.5477C65.1225 44.081 65.0571 43.5818 65.0771 43.0822C65.0972 42.5826 65.2022 42.0937 65.3855 41.6469C65.5688 41.2001 65.8263 40.8054 66.1414 40.4881L76.0919 30.4306C77.0463 29.4659 77.232 27.7953 77.1277 26.2822C77.0508 25.1827 77.2094 24.0777 77.588 23.0768C77.9665 22.0758 78.5517 21.2138 79.2855 20.5761C80.0193 19.9385 80.8763 19.5474 81.7713 19.4417C82.6663 19.3361 83.5683 19.5195 84.3877 19.9737L80.6339 24.5806C80.7792 25.3514 81.0978 26.0566 81.5536 26.616C82.0094 27.1754 82.584 27.5665 83.2121 27.7447L86.9658 23.1378C87.2591 23.9323 87.4219 24.8141 87.4219 25.7422Z" stroke="black" stroke-width="1.5" stroke-linecap="round" stroke-linejoin="round"/>
<path d="M68.0768 43.1445H68.0838V43.1513H68.0768V43.1445Z" stroke="black" stroke-width="1.5" stroke-linecap="round" stroke-linejoin="round"/>
</svg>
