<svg width="80" height="80" viewBox="0 0 80 80" fill="none" xmlns="http://www.w3.org/2000/svg">
<path d="M34.8305 32.1934C34.0393 31.1209 34.7602 29.3627 34.8305 28C36.9228 29.011 40.8173 32.255 45.1778 33.4066C44.7558 31.1649 44.0173 30.7692 43.8679 28.5011C46.9009 31.7187 53.4063 32.0967 57.4855 29.9341C56.0889 26.9828 53.9678 24.4331 51.32 22.5226C48.6723 20.6122 45.5839 19.4032 42.3428 19.0082C39.1017 18.6133 35.8134 19.0453 32.7843 20.264C29.7552 21.4827 27.084 23.4485 25.0195 25.978C28.1316 29.8901 31.0415 31.8594 34.8305 32.1934Z" fill="#052952"/>
<path d="M63.7715 49.6615C66.6463 49.6615 69.4034 48.5195 71.4362 46.4867C73.469 44.4539 74.611 41.6968 74.611 38.822C74.611 35.9472 73.469 33.1901 71.4362 31.1573C69.4034 29.1244 66.6463 27.9824 63.7715 27.9824V49.6615Z" fill="#1669AA"/>
<path d="M16.2732 49.6615C13.3983 49.6615 10.6412 48.5195 8.60843 46.4867C6.57562 44.4539 5.43359 41.6968 5.43359 38.822C5.43359 35.9472 6.57562 33.1901 8.60843 31.1573C10.6412 29.1244 13.3983 27.9824 16.2732 27.9824V49.6615Z" fill="#1669AA"/>
<path d="M46.4612 67.7888C46.4612 68.1798 46.384 68.5669 46.2341 68.928C46.0842 69.289 45.8646 69.617 45.5877 69.893C45.3109 70.1691 44.9823 70.3878 44.6207 70.5366C44.2592 70.6854 43.8719 70.7614 43.4809 70.7602H36.5623C36.1713 70.7614 35.784 70.6854 35.4224 70.5366C35.0609 70.3878 34.7323 70.1691 34.4554 69.893C34.1786 69.617 33.9589 69.289 33.8091 68.928C33.6592 68.5669 33.582 68.1798 33.582 67.7888C33.582 66.9984 33.896 66.2404 34.4549 65.6815C35.0138 65.1226 35.7718 64.8086 36.5623 64.8086H43.4809C44.2713 64.8086 45.0294 65.1226 45.5883 65.6815C46.1472 66.2404 46.4612 66.9984 46.4612 67.7888Z" fill="#052952"/>
<path d="M63.7717 50.769C63.4833 50.7667 63.2074 50.6511 63.0035 50.4472C62.7995 50.2432 62.6839 49.9673 62.6816 49.6789V28.0086C62.6816 27.7195 62.7965 27.4422 63.0009 27.2377C63.2054 27.0333 63.4826 26.9185 63.7717 26.9185C65.365 26.8752 66.9509 27.1516 68.4355 27.7315C69.9202 28.3113 71.2736 29.1828 72.4158 30.2945C73.5581 31.4061 74.466 32.7354 75.0859 34.2038C75.7058 35.6721 76.0252 37.2499 76.0252 38.8437C76.0252 40.4376 75.7058 42.0153 75.0859 43.4837C74.466 44.9521 73.5581 46.2814 72.4158 47.393C71.2736 48.5046 69.9202 49.3761 68.4355 49.956C66.9509 50.5358 65.365 50.8123 63.7717 50.769ZM64.8619 29.1514V48.4921C67.2136 48.1906 69.375 47.0425 70.9413 45.2625C72.5077 43.4826 73.3717 41.1928 73.3717 38.8218C73.3717 36.4507 72.5077 34.161 70.9413 32.381C69.375 30.601 67.2136 29.4529 64.8619 29.1514Z" fill="#0C0A0A"/>
<path d="M16.2641 50.7693C13.1573 50.6849 10.2062 49.3915 8.0386 47.1643C5.87104 44.937 4.6582 41.9519 4.6582 38.844C4.6582 35.7361 5.87104 32.7509 8.0386 30.5237C10.2062 28.2965 13.1573 27.0031 16.2641 26.9187C16.4075 26.9175 16.5498 26.9449 16.6826 26.9993C16.8154 27.0537 16.936 27.1339 17.0375 27.2354C17.139 27.3369 17.2192 27.4575 17.2736 27.5903C17.3279 27.7231 17.3553 27.8653 17.3542 28.0088V49.6792C17.3542 49.9683 17.2393 50.2455 17.0349 50.45C16.8304 50.6544 16.5532 50.7693 16.2641 50.7693ZM15.1739 29.1517C12.8222 29.4531 10.6608 30.6013 9.09446 32.3813C7.5281 34.1612 6.66406 36.451 6.66406 38.822C6.66406 41.193 7.5281 43.4828 9.09446 45.2628C10.6608 47.0427 12.8222 48.1909 15.1739 48.4923V29.1517Z" fill="#0C0A0A"/>
<path d="M43.4806 71.8677H36.5531C35.5074 71.8191 34.5207 71.3695 33.7979 70.6123C33.0752 69.8551 32.6719 68.8486 32.6719 67.8018C32.6719 66.755 33.0752 65.7485 33.7979 64.9913C34.5207 64.2341 35.5074 63.7845 36.5531 63.7358H43.4806C44.0304 63.7103 44.5797 63.7965 45.0953 63.9893C45.6109 64.1821 46.082 64.4774 46.4802 64.8575C46.8783 65.2376 47.1953 65.6945 47.4118 66.2005C47.6284 66.7066 47.74 67.2513 47.74 67.8018C47.74 68.3522 47.6284 68.8969 47.4118 69.403C47.1953 69.9091 46.8783 70.366 46.4802 70.746C46.082 71.1261 45.6109 71.4215 45.0953 71.6143C44.5797 71.8071 44.0304 71.8933 43.4806 71.8677ZM36.5531 65.9336C36.0518 65.9336 35.571 66.1328 35.2166 66.4872C34.8621 66.8417 34.663 67.3225 34.663 67.8238C34.663 68.325 34.8621 68.8058 35.2166 69.1603C35.571 69.5147 36.0518 69.7139 36.5531 69.7139H43.4806C43.9819 69.7139 44.4626 69.5147 44.8171 69.1603C45.1715 68.8058 45.3707 68.325 45.3707 67.8238C45.3707 67.3225 45.1715 66.8417 44.8171 66.4872C44.4626 66.1328 43.9819 65.9336 43.4806 65.9336H36.5531Z" fill="#0C0A0A"/>
<path d="M11.8241 30.0489C11.7098 30.0503 11.5964 30.0294 11.4901 29.9874C11.215 29.8987 10.9864 29.7044 10.8545 29.4473C10.7226 29.1901 10.6982 28.8911 10.7868 28.616C12.8122 22.4632 16.7277 17.1066 21.9755 13.3093C27.2233 9.51204 33.5356 7.46777 40.0131 7.46777C46.4907 7.46777 52.803 9.51204 58.0508 13.3093C63.2986 17.1066 67.2141 22.4632 69.2395 28.616C69.3052 28.8829 69.2675 29.1647 69.1342 29.4051C69.0008 29.6455 68.7816 29.8266 68.5204 29.9122C68.2592 29.9978 67.9753 29.9815 67.7255 29.8667C67.4758 29.7518 67.2786 29.5469 67.1736 29.2929C65.301 23.567 61.6664 18.5795 56.7892 15.0432C51.912 11.5069 46.0419 9.60265 40.0175 9.60265C33.9932 9.60265 28.123 11.5069 23.2459 15.0432C18.3687 18.5795 14.7341 23.567 12.8615 29.2929C12.7896 29.5117 12.6508 29.7024 12.4647 29.8381C12.2785 29.9738 12.0545 30.0475 11.8241 30.0489Z" fill="#0C0A0A"/>
<path d="M46.5941 68.1678C46.3319 68.1593 46.0816 68.0566 45.889 67.8785C45.6964 67.7004 45.5745 67.4588 45.5457 67.1981C45.5168 66.9374 45.583 66.675 45.7319 66.4591C45.8809 66.2432 46.1027 66.0883 46.3567 66.0227C50.9037 64.9926 55.1287 62.8631 58.6615 59.8207C62.1943 56.7784 64.9271 52.916 66.6204 48.5722C66.6653 48.4292 66.7392 48.2971 66.8374 48.184C66.9356 48.0708 67.0561 47.9792 67.1913 47.9147C67.3266 47.8502 67.4736 47.8143 67.6234 47.8092C67.7731 47.8041 67.9222 47.8299 68.0616 47.8851C68.2009 47.9402 68.3273 48.0234 68.433 48.1296C68.5387 48.2357 68.6214 48.3625 68.6759 48.5021C68.7304 48.6416 68.7556 48.7909 68.7498 48.9406C68.744 49.0903 68.7075 49.2372 68.6424 49.3722C66.8153 54.0481 63.8689 58.2045 60.0616 61.4768C56.2544 64.7492 51.7025 67.0376 46.8051 68.1414C46.7357 68.1566 46.6651 68.1654 46.5941 68.1678Z" fill="#0C0A0A"/>
<path d="M40.0187 58.5666C35.9813 58.5666 32.0346 57.3694 28.6777 55.1264C25.3208 52.8833 22.7044 49.6952 21.1593 45.9652C19.6143 42.2352 19.2101 38.1308 19.9977 34.171C20.7854 30.2112 22.7295 26.574 25.5844 23.7191C28.4392 20.8643 32.0765 18.9201 36.0362 18.1325C39.996 17.3448 44.1004 17.7491 47.8305 19.2941C51.5605 20.8391 54.7486 23.4555 56.9916 26.8125C59.2346 30.1694 60.4319 34.1161 60.4319 38.1534C60.4249 43.5652 58.272 48.7533 54.4453 52.58C50.6186 56.4067 45.4304 58.5596 40.0187 58.5666ZM40.0187 19.8853C36.4115 19.8836 32.8849 20.9513 29.8844 22.9535C26.884 24.9557 24.5445 27.8025 23.1618 31.1341C21.779 34.4656 21.4149 38.1324 22.1157 41.6708C22.8164 45.2092 24.5504 48.4604 27.0986 51.0135C29.6468 53.5666 32.8947 55.3069 36.4317 56.0144C39.9688 56.722 43.6362 56.365 46.9704 54.9886C50.3046 53.6123 53.1559 51.2783 55.1639 48.2817C57.1719 45.2852 58.2464 41.7606 58.2516 38.1534C58.247 33.3192 56.3245 28.6843 52.9062 25.2659C49.4878 21.8476 44.8529 19.9251 40.0187 19.9205V19.8853Z" fill="#0C0A0A"/>
<path d="M29.1861 40.5186C28.758 40.5186 28.3395 40.3916 27.9837 40.1535C27.6278 39.9155 27.3506 39.5772 27.1872 39.1816C27.0238 38.7859 26.9815 38.3506 27.0656 37.9308C27.1498 37.5111 27.3566 37.1258 27.66 36.8237C27.9633 36.5216 28.3495 36.3163 28.7696 36.2338C29.1897 36.1514 29.6248 36.1955 30.0198 36.3605C30.4148 36.5255 30.7519 36.8041 30.9885 37.1609C31.2251 37.5177 31.3504 37.9367 31.3487 38.3648C31.3464 38.9368 31.1175 39.4846 30.7122 39.8883C30.3069 40.292 29.7581 40.5186 29.1861 40.5186Z" fill="#0C0A0A"/>
<path d="M50.2857 40.5187C49.8576 40.5187 49.4391 40.3916 49.0833 40.1536C48.7274 39.9156 48.4502 39.5773 48.2868 39.1816C48.1234 38.7859 48.0811 38.3506 48.1652 37.9309C48.2494 37.5111 48.4563 37.1258 48.7596 36.8237C49.0629 36.5216 49.4491 36.3163 49.8692 36.2339C50.2893 36.1514 50.7244 36.1955 51.1194 36.3606C51.5144 36.5256 51.8515 36.8042 52.0881 37.161C52.3247 37.5178 52.45 37.9367 52.4483 38.3648C52.446 38.9369 52.2171 39.4847 51.8118 39.8884C51.4065 40.292 50.8577 40.5187 50.2857 40.5187Z" fill="#0C0A0A"/>
<path d="M40.0172 50.7254C38.3624 50.7231 36.7762 50.0647 35.6061 48.8947C34.4361 47.7246 33.7777 46.1384 33.7754 44.4837C33.7754 44.1945 33.8902 43.9173 34.0947 43.7128C34.2991 43.5084 34.5764 43.3936 34.8655 43.3936C35.1546 43.3936 35.4319 43.5084 35.6363 43.7128C35.8408 43.9173 35.9556 44.1945 35.9556 44.4837C35.93 45.0335 36.0163 45.5828 36.2091 46.0984C36.4018 46.614 36.6972 47.0851 37.0773 47.4833C37.4574 47.8814 37.9142 48.1984 38.4203 48.4149C38.9264 48.6315 39.4711 48.7431 40.0215 48.7431C40.572 48.7431 41.1167 48.6315 41.6228 48.4149C42.1288 48.1984 42.5857 47.8814 42.9658 47.4833C43.3459 47.0851 43.6412 46.614 43.834 46.0984C44.0268 45.5828 44.1131 45.0335 44.0875 44.4837C44.0875 44.1945 44.2023 43.9173 44.4068 43.7128C44.6112 43.5084 44.8885 43.3936 45.1776 43.3936C45.4667 43.3936 45.744 43.5084 45.9484 43.7128C46.1528 43.9173 46.2677 44.1945 46.2677 44.4837C46.2631 46.1392 45.6027 47.7254 44.4313 48.8952C43.2598 50.065 41.6727 50.7231 40.0172 50.7254Z" fill="#0C0A0A"/>
<path d="M45.1783 34.4965C45.085 34.5094 44.9903 34.5094 44.897 34.4965C41.9644 33.5642 39.1944 32.1822 36.686 30.3998L35.6926 29.7669C35.4883 30.3562 35.4883 30.9972 35.6926 31.5866C35.8172 31.7551 35.8901 31.9561 35.9026 32.1652C35.9151 32.3743 35.8666 32.5826 35.7629 32.7647C35.6604 32.9479 35.5071 33.0977 35.3216 33.1959C35.136 33.2942 34.9259 33.3368 34.7168 33.3185C30.0486 32.8965 27.0157 29.9427 24.6772 27.1031C24.494 26.8812 24.406 26.5959 24.4323 26.3093C24.4587 26.0227 24.5973 25.7582 24.8178 25.5734C25.0412 25.3897 25.328 25.3015 25.616 25.3278C25.904 25.3541 26.17 25.4929 26.3563 25.7141C28.8003 28.6855 30.9277 30.268 33.3893 30.8921C33.4034 30.2595 33.477 29.6296 33.6091 29.0108C33.6889 28.6486 33.7447 28.2815 33.7761 27.9119C33.7893 27.7323 33.8458 27.5585 33.9407 27.4054C34.0356 27.2523 34.1661 27.1245 34.3211 27.0328C34.4778 26.9482 34.653 26.9038 34.831 26.9038C35.0091 26.9038 35.1843 26.9482 35.3409 27.0328C36.2094 27.4928 37.0517 28.0005 37.864 28.5537C39.6575 29.7731 41.5549 30.8321 43.5343 31.7185C43.538 31.6864 43.538 31.6539 43.5343 31.6218C43.1152 30.6588 42.871 29.6287 42.8135 28.58C42.799 28.3562 42.854 28.1333 42.971 27.9418C43.0879 27.7503 43.2611 27.5996 43.4668 27.5102C43.6726 27.4208 43.9009 27.397 44.1207 27.4422C44.3405 27.4873 44.5409 27.5992 44.6948 27.7625C47.253 30.4789 53.0113 31.024 57.0025 28.9317C57.2565 28.8092 57.5481 28.7898 57.816 28.8778C58.084 28.9657 58.3074 29.1541 58.4394 29.4033C58.5714 29.6525 58.6017 29.9432 58.5239 30.2142C58.4461 30.4853 58.2663 30.7157 58.0222 30.857C56.1187 31.8085 54.0284 32.3279 51.9008 32.378C49.7733 32.4282 47.6609 32.0079 45.7146 31.1471C45.9788 31.8122 46.179 32.5011 46.3124 33.2042C46.3479 33.3859 46.3358 33.5737 46.2773 33.7493C46.2187 33.9249 46.1157 34.0824 45.9783 34.2064C45.8724 34.3077 45.7466 34.3858 45.6088 34.4357C45.4711 34.4857 45.3245 34.5064 45.1783 34.4965Z" fill="#0C0A0A"/>
</svg>
