<svg width="81" height="80" viewBox="0 0 81 80" fill="none" xmlns="http://www.w3.org/2000/svg">
<path d="M47.9543 58.2063L40.4554 45.2832L32.9917 58.2414L11.0664 46.5931V60.6678L40.4554 76.2634L69.8532 60.6678V46.5931L47.9543 58.2063Z" fill="#052952"/>
<path d="M40.4127 77.1697C40.2346 77.1677 40.0596 77.1224 39.9028 77.0378L10.5138 61.4422C10.3382 61.3514 10.1911 61.2139 10.0887 61.0448C9.98628 60.8757 9.93262 60.6816 9.93361 60.4839V46.7872C9.95803 46.5161 10.083 46.264 10.2839 46.0804C10.4848 45.8967 10.7471 45.7949 11.0193 45.7949C11.2915 45.7949 11.5538 45.8967 11.7548 46.0804C11.9557 46.264 12.0806 46.5161 12.105 46.7872V59.8334L40.4127 74.8488L68.7204 59.8334V46.7872C68.7448 46.5161 68.8698 46.264 69.0707 46.0804C69.2716 45.8967 69.534 45.7949 69.8061 45.7949C70.0783 45.7949 70.3407 45.8967 70.5416 46.0804C70.7425 46.264 70.8674 46.5161 70.8919 46.7872V60.4839C70.8927 60.6805 70.84 60.8736 70.7393 61.0424C70.6386 61.2113 70.4938 61.3495 70.3204 61.4422L40.9402 77.0378C40.7791 77.1275 40.5971 77.173 40.4127 77.1697Z" fill="#0C0A0A"/>
<path d="M40.4119 77.1693C40.2691 77.1693 40.1278 77.1411 39.996 77.0862C39.8643 77.0313 39.7447 76.9508 39.6442 76.8495C39.5436 76.7482 39.4642 76.6279 39.4103 76.4957C39.3565 76.3635 39.3294 76.2219 39.3306 76.0792V45.31C39.317 45.1592 39.335 45.0072 39.3834 44.8638C39.4317 44.7203 39.5095 44.5885 39.6116 44.4767C39.7138 44.365 39.8381 44.2757 39.9766 44.2147C40.1151 44.1536 40.2649 44.1221 40.4163 44.1221C40.5677 44.1221 40.7174 44.1536 40.856 44.2147C40.9945 44.2757 41.1188 44.365 41.2209 44.4767C41.3231 44.5885 41.4008 44.7203 41.4492 44.8638C41.4976 45.0072 41.5156 45.1592 41.502 45.31V76.0792C41.5032 76.2227 41.4758 76.365 41.4214 76.4977C41.367 76.6305 41.2868 76.7512 41.1853 76.8526C41.0839 76.9541 40.9632 77.0344 40.8304 77.0887C40.6976 77.1431 40.5554 77.1705 40.4119 77.1693Z" fill="#0C0A0A"/>
<path d="M11.0487 30.3729C10.8741 30.3686 10.7032 30.3224 10.5502 30.2383C10.3972 30.1542 10.2667 30.0345 10.1696 29.8894L2.6267 18.4608C2.54152 18.333 2.48554 18.1879 2.46275 18.036C2.43996 17.884 2.45091 17.7289 2.49483 17.5817C2.53663 17.4312 2.61108 17.2917 2.71288 17.1732C2.81468 17.0546 2.94133 16.96 3.08384 16.896L18.5564 9.86301C18.6887 9.78401 18.8364 9.73399 18.9895 9.71624C19.1426 9.69848 19.2978 9.71341 19.4447 9.76004C19.5917 9.80666 19.727 9.88392 19.8419 9.98671C19.9568 10.0895 20.0486 10.2155 20.1112 10.3564C20.1738 10.4972 20.2058 10.6498 20.2051 10.8039C20.2044 10.9581 20.1711 11.1103 20.1072 11.2506C20.0434 11.391 19.9505 11.5161 19.8347 11.6179C19.7189 11.7197 19.5828 11.7957 19.4355 11.841L5.14099 18.3289L11.4267 27.8938L17.7036 24.8784C17.9599 24.7777 18.2448 24.7777 18.5011 24.8784C18.7574 24.9791 18.9661 25.1731 19.0852 25.4214C19.2044 25.6696 19.2251 25.9538 19.1433 26.2168C19.0615 26.4797 18.8832 26.702 18.6443 26.8388L11.5058 30.2586C11.3649 30.3332 11.2081 30.3724 11.0487 30.3729Z" fill="#0C0A0A"/>
<path d="M69.8266 30.3642C69.6627 30.363 69.5009 30.327 69.3519 30.2587L61.7123 26.5928C61.5825 26.531 61.466 26.4443 61.3697 26.3375C61.2733 26.2307 61.1989 26.106 61.1508 25.9705C61.1026 25.835 61.0816 25.6913 61.089 25.5477C61.0963 25.4041 61.1319 25.2633 61.1937 25.1334C61.2554 25.0036 61.3422 24.8871 61.4489 24.7908C61.5557 24.6944 61.6804 24.62 61.8159 24.5718C61.9514 24.5237 62.0951 24.5027 62.2387 24.51C62.3823 24.5174 62.5231 24.553 62.653 24.6147L69.4398 27.8675L75.7255 18.3027L61.6596 11.8147C61.5296 11.7543 61.4128 11.6687 61.3159 11.5631C61.219 11.4574 61.1439 11.3336 61.0949 11.1989C61.0459 11.0642 61.024 10.9211 61.0304 10.7778C61.0368 10.6346 61.0713 10.494 61.1321 10.3642C61.1917 10.2345 61.2764 10.1179 61.3812 10.0211C61.4861 9.92432 61.6091 9.84924 61.7431 9.8002C61.8772 9.75117 62.0196 9.72915 62.1622 9.73542C62.3047 9.74169 62.4447 9.77612 62.5739 9.83673L77.7739 16.8697C77.9154 16.9352 78.0412 17.0303 78.1428 17.1486C78.2444 17.2669 78.3195 17.4056 78.3629 17.5554C78.4028 17.7031 78.4117 17.8575 78.389 18.0088C78.3663 18.1601 78.3125 18.305 78.231 18.4345L70.7321 29.8895C70.6321 30.0372 70.497 30.1578 70.339 30.2406C70.181 30.3234 70.005 30.3659 69.8266 30.3642Z" fill="#0C0A0A"/>
<path d="M47.9185 59.1121C47.7272 59.1142 47.5389 59.0647 47.3733 58.9688C47.2078 58.8728 47.0712 58.7341 46.9779 58.567L39.4702 45.6439C39.3921 45.5129 39.3423 45.367 39.3242 45.2156C39.306 45.0641 39.3198 44.9106 39.3647 44.7648C39.4048 44.6255 39.4721 44.4956 39.5626 44.3824C39.6531 44.2693 39.7651 44.1752 39.8922 44.1055L69.29 28.2813C69.5408 28.1502 69.8325 28.1209 70.1043 28.1995C70.3762 28.2781 70.6072 28.4586 70.7493 28.7033L78.257 41.8901C78.3326 42.0221 78.3803 42.1683 78.3969 42.3196C78.4135 42.4708 78.3988 42.6239 78.3537 42.7692C78.3135 42.9096 78.2452 43.0404 78.1531 43.1538C78.0609 43.2671 77.9467 43.3606 77.8174 43.4285L48.4284 58.989C48.2696 59.067 48.0955 59.109 47.9185 59.1121ZM41.9142 45.5296L48.3317 56.5714L75.8043 41.9868L69.3867 30.7692L41.9142 45.5296Z" fill="#0C0A0A"/>
<path d="M32.9487 59.1473C32.7703 59.1476 32.5947 59.1022 32.4388 59.0155L3.0498 43.4111C2.92051 43.3431 2.80634 43.2496 2.71417 43.1363C2.622 43.023 2.55375 42.8921 2.51353 42.7517C2.46507 42.6069 2.44861 42.4533 2.46531 42.3015C2.48201 42.1498 2.53145 42.0034 2.61024 41.8726L10.1179 28.6858C10.2569 28.4377 10.4879 28.2543 10.761 28.1754C11.0341 28.0964 11.3274 28.1282 11.5773 28.2638L40.9399 44.1671C41.067 44.2368 41.179 44.3309 41.2695 44.4441C41.36 44.5573 41.4273 44.6872 41.4674 44.8265C41.5123 44.9722 41.5261 45.1258 41.5079 45.2772C41.4897 45.4286 41.44 45.5746 41.3619 45.7056L33.9069 58.6023C33.8087 58.7689 33.6686 58.9068 33.5004 59.0025C33.3323 59.0981 33.1421 59.148 32.9487 59.1473ZM5.05419 42.0133L32.5355 56.6067L38.9531 45.5473L11.4806 30.7693L5.05419 42.0133Z" fill="#0C0A0A"/>
<path d="M40.5 34C48.7843 34 55.5 27.2843 55.5 19C55.5 10.7157 48.7843 4 40.5 4C32.2157 4 25.5 10.7157 25.5 19C25.5 27.2843 32.2157 34 40.5 34Z" fill="#1669AA"/>
<path d="M48.1562 66.0661C47.9474 66.0666 47.743 66.0061 47.5682 65.8921C47.3933 65.7781 47.2554 65.6156 47.1716 65.4244C47.1115 65.2941 47.078 65.1532 47.0729 65.0098C47.0679 64.8664 47.0914 64.7235 47.1421 64.5893C47.1929 64.4551 47.2698 64.3324 47.3684 64.2282C47.467 64.1241 47.5854 64.0406 47.7166 63.9826L55.2331 60.6068C55.4915 60.5174 55.774 60.5284 56.0246 60.6375C56.2753 60.7466 56.4758 60.9459 56.5864 61.1959C56.697 61.4459 56.7097 61.7283 56.6218 61.9872C56.534 62.2461 56.3521 62.4625 56.1122 62.5936L48.6045 65.9343C48.4658 66.0086 48.3131 66.0535 48.1562 66.0661Z" fill="#0C0A0A"/>
<path d="M40.4288 35.9124C37.1556 35.9124 33.9557 34.942 31.2338 33.1238C28.512 31.3056 26.3902 28.7213 25.1368 25.6975C23.8833 22.6737 23.5545 19.3462 24.1918 16.1355C24.8291 12.9249 26.404 9.97521 28.7173 7.65942C31.0306 5.34362 33.9786 3.76564 37.1886 3.12492C40.3986 2.4842 43.7264 2.80952 46.7516 4.05974C49.7767 5.30997 52.3632 7.42898 54.1843 10.1489C56.0054 12.8689 56.9792 16.0677 56.9827 19.341C56.9827 23.7329 55.2392 27.9453 52.1352 31.0525C49.0313 34.1598 44.8208 35.9077 40.4288 35.9124ZM40.4288 4.98491C37.5853 4.98492 34.8056 5.82836 32.4415 7.40853C30.0774 8.98871 28.2351 11.2346 27.1477 13.8621C26.0603 16.4895 25.7767 19.3805 26.3327 22.1692C26.8887 24.9579 28.2594 27.519 30.2714 29.5285C32.2833 31.5379 34.8461 32.9055 37.6355 33.4581C40.4249 34.0107 43.3155 33.7236 45.9416 32.633C48.5677 31.5424 50.8114 29.6973 52.3886 27.3313C53.9659 24.9653 54.8059 22.1845 54.8025 19.341C54.7909 15.534 53.2722 11.8866 50.5786 9.19632C47.8851 6.50605 44.2358 4.99187 40.4288 4.98491Z" fill="#0C0A0A"/>
<path d="M40.429 35.5518C40.2863 35.5518 40.1449 35.5235 40.0132 35.4687C39.8814 35.4138 39.7618 35.3333 39.6613 35.232C39.5608 35.1306 39.4813 35.0104 39.4275 34.8782C39.3736 34.746 39.3465 34.6044 39.3477 34.4617V31.8859C39.3721 31.6148 39.4971 31.3626 39.698 31.179C39.8989 30.9954 40.1612 30.8936 40.4334 30.8936C40.7056 30.8936 40.9679 30.9954 41.1688 31.179C41.3698 31.3626 41.4947 31.6148 41.5191 31.8859V34.4617C41.5203 34.6052 41.4929 34.7475 41.4385 34.8802C41.3842 35.013 41.3039 35.1337 41.2024 35.2351C41.101 35.3366 40.9803 35.4168 40.8476 35.4712C40.7148 35.5256 40.5725 35.553 40.429 35.5518Z" fill="#0C0A0A"/>
<path d="M55.5419 20.4488H52.9573C52.6682 20.4488 52.3909 20.3339 52.1865 20.1295C51.982 19.9251 51.8672 19.6478 51.8672 19.3587C51.8672 19.0695 51.982 18.7923 52.1865 18.5878C52.3909 18.3834 52.6682 18.2686 52.9573 18.2686H55.5419C55.831 18.2686 56.1083 18.3834 56.3127 18.5878C56.5172 18.7923 56.632 19.0695 56.632 19.3587C56.632 19.6478 56.5172 19.9251 56.3127 20.1295C56.1083 20.3339 55.831 20.4488 55.5419 20.4488Z" fill="#0C0A0A"/>
<path d="M27.9023 20.4488H25.3264C25.0373 20.4488 24.76 20.3339 24.5556 20.1295C24.3512 19.9251 24.2363 19.6478 24.2363 19.3587C24.2363 19.0695 24.3512 18.7923 24.5556 18.5878C24.76 18.3834 25.0373 18.2686 25.3264 18.2686H27.9023C28.1914 18.2686 28.4687 18.3834 28.6731 18.5878C28.8775 18.7923 28.9924 19.0695 28.9924 19.3587C28.9924 19.6478 28.8775 19.9251 28.6731 20.1295C28.4687 20.3339 28.1914 20.4488 27.9023 20.4488Z" fill="#0C0A0A"/>
<path d="M31.5757 11.5867C31.4323 11.5874 31.2901 11.5599 31.1573 11.5055C31.0246 11.4512 30.9039 11.3713 30.8021 11.2702L28.9823 9.45043C28.7994 9.24239 28.7026 8.97254 28.7115 8.69569C28.7204 8.41885 28.8344 8.15577 29.0302 7.95991C29.2261 7.76405 29.4892 7.65009 29.766 7.64119C30.0428 7.63228 30.3127 7.7291 30.5207 7.91197L32.3405 9.73175C32.4906 9.88414 32.5925 10.0773 32.6336 10.2872C32.6747 10.4971 32.6532 10.7145 32.5716 10.9122C32.4901 11.1099 32.3522 11.2793 32.1751 11.3992C31.998 11.5192 31.7896 11.5844 31.5757 11.5867Z" fill="#0C0A0A"/>
<path d="M51.1114 31.1298C50.8248 31.1289 50.55 31.0152 50.3466 30.8133L48.5268 29.0111C48.3216 28.8071 48.2059 28.5299 48.2051 28.2406C48.2043 27.9512 48.3184 27.6734 48.5224 27.4682C48.7264 27.263 49.0036 27.1473 49.2929 27.1465C49.5823 27.1457 49.8601 27.2598 50.0653 27.4638L51.8851 29.2836C52.0885 29.4879 52.2028 29.7645 52.2028 30.0528C52.2028 30.3412 52.0885 30.6178 51.8851 30.8221C51.7834 30.9227 51.6625 31.0019 51.5296 31.0547C51.3967 31.1076 51.2544 31.1331 51.1114 31.1298Z" fill="#0C0A0A"/>
<path d="M49.2911 11.5869C49.0773 11.5846 48.8688 11.5194 48.6917 11.3995C48.5146 11.2795 48.3767 11.1101 48.2952 10.9124C48.2137 10.7147 48.1921 10.4973 48.2332 10.2874C48.2743 10.0775 48.3762 9.88435 48.5263 9.73196L50.3461 7.91218C50.4467 7.81038 50.5664 7.72955 50.6985 7.67439C50.8305 7.61923 50.9722 7.59082 51.1153 7.59082C51.2584 7.59082 51.4001 7.61923 51.5321 7.67439C51.6642 7.72955 51.784 7.81038 51.8845 7.91218C52.088 8.11649 52.2022 8.39308 52.2022 8.68141C52.2022 8.96975 52.088 9.24634 51.8845 9.45064L50.0648 11.2704C49.8581 11.4729 49.5804 11.5865 49.2911 11.5869Z" fill="#0C0A0A"/>
<path d="M29.7483 31.1301C29.6029 31.126 29.4598 31.0919 29.3282 31.0298C29.1966 30.9678 29.0792 30.8792 28.9835 30.7696C28.8817 30.6691 28.8008 30.5493 28.7457 30.4172C28.6905 30.2852 28.6621 30.1435 28.6621 30.0004C28.6621 29.8573 28.6905 29.7156 28.7457 29.5836C28.8008 29.4515 28.8817 29.3317 28.9835 29.2312L30.8033 27.4114C31.0154 27.2074 31.3 27.096 31.5942 27.1018C31.8885 27.1075 32.1685 27.23 32.3725 27.4422C32.5765 27.6543 32.6879 27.9389 32.6821 28.2331C32.6763 28.5274 32.5539 28.8074 32.3417 29.0114L30.5219 30.8312C30.3135 31.0288 30.0355 31.1363 29.7483 31.1301Z" fill="#0C0A0A"/>
<path d="M40.4294 20.4477H34.6975C34.4084 20.4477 34.1311 20.3328 33.9267 20.1284C33.7223 19.924 33.6074 19.6467 33.6074 19.3576C33.6074 19.0685 33.7223 18.7912 33.9267 18.5868C34.1311 18.3823 34.4084 18.2675 34.6975 18.2675H39.3481V8.35978C39.3345 8.20899 39.3525 8.05703 39.4009 7.91357C39.4493 7.77011 39.527 7.6383 39.6291 7.52655C39.7313 7.41479 39.8556 7.32554 39.9941 7.26448C40.1327 7.20341 40.2824 7.17188 40.4338 7.17188C40.5852 7.17188 40.7349 7.20341 40.8735 7.26448C41.012 7.32554 41.1363 7.41479 41.2385 7.52655C41.3406 7.6383 41.4183 7.77011 41.4667 7.91357C41.5151 8.05703 41.5331 8.20899 41.5195 8.35978V19.34C41.5218 19.4846 41.4954 19.6283 41.4416 19.7626C41.3879 19.8969 41.308 20.0191 41.2065 20.1222C41.105 20.2253 40.9841 20.3072 40.8507 20.3631C40.7173 20.4189 40.574 20.4477 40.4294 20.4477Z" fill="#0C0A0A"/>
</svg>
