<svg width="60" height="80" viewBox="0 0 60 80" fill="none" xmlns="http://www.w3.org/2000/svg">
<g clip-path="url(#clip0_2131_107)">
<path d="M57.5714 73.8983C57.5714 73.9974 57.5311 74.1794 57.2804 74.4548C57.0245 74.7359 56.5998 75.0551 55.969 75.3903C54.7093 76.0599 52.8205 76.6935 50.4021 77.2372C45.5813 78.3209 38.8727 79 31.4285 79C23.9843 79 17.2757 78.3209 12.4549 77.2372C10.0365 76.6935 8.14774 76.0599 6.88798 75.3903C6.25723 75.0551 5.83246 74.7359 5.57659 74.4548C5.32588 74.1794 5.28564 73.9974 5.28564 73.8983C5.28564 73.7992 5.32588 73.6172 5.57659 73.3417C5.83246 73.0607 6.25723 72.7415 6.88798 72.4063C8.14774 71.7367 10.0365 71.1031 12.4549 70.5594C17.2757 69.4757 23.9843 68.7966 31.4285 68.7966C38.8727 68.7966 45.5813 69.4757 50.4021 70.5594C52.8205 71.1031 54.7093 71.7367 55.969 72.4063C56.5998 72.7415 57.0245 73.0607 57.2804 73.3417C57.5311 73.6172 57.5714 73.7992 57.5714 73.8983Z" fill="#1669AA" stroke="black" stroke-width="2"/>
<path d="M58.1952 33.825L58.1863 33.8669L58.1804 33.9093C56.9133 42.9728 49.8398 52.8506 42.8662 60.595C39.4082 64.4351 36.0294 67.6922 33.5143 69.9894C32.2574 71.1375 31.2179 72.0444 30.4942 72.6629C30.373 72.7665 30.2606 72.862 30.1576 72.9492C30.1023 72.9023 30.0443 72.8531 29.9836 72.8014C29.3618 72.2724 28.4646 71.4948 27.3694 70.5057C25.1781 68.5267 22.1988 65.7051 19.048 62.3367C12.7118 55.5631 5.81874 46.7201 3.11286 38.1454L3.0992 38.1021L3.08245 38.0599C1.898 35.0792 1.25 31.8496 1.25 28.4746C1.25 13.4995 14.0595 1.25 30 1.25C45.9405 1.25 58.75 13.4995 58.75 28.4746C58.75 30.307 58.559 32.0959 58.1952 33.825Z" fill="white" stroke="black" stroke-width="2.5"/>
<path d="M36.4296 23.0729C40.2721 25.0126 42.8571 28.6374 42.8571 32.7889V45.6086H35.1966C34.4403 47.4758 32.3991 48.8136 30 48.8136C27.6008 48.8136 25.5597 47.4758 24.8033 45.6086H17.1428V32.7889C17.1428 28.6374 19.7279 25.0126 23.5702 23.0729C23.273 22.6052 23.0409 22.1017 22.8845 21.5717H17.1428V18.3667H22.8845C23.7001 15.6021 26.5767 13.5593 30 13.5593C33.4233 13.5593 36.2998 15.6021 37.1155 18.3667H42.8571V21.5717H37.1155C36.959 22.1017 36.727 22.6052 36.4296 23.0729ZM30 34.3914C28.9855 34.3914 28.1632 35.1088 28.1632 35.9938V44.0062C28.1632 44.8912 28.9855 45.6086 30 45.6086C31.0144 45.6086 31.8367 44.8912 31.8367 44.0062V35.9938C31.8367 35.1088 31.0144 34.3914 30 34.3914ZM30 23.1741C32.0288 23.1741 33.6734 21.7392 33.6734 19.9692C33.6734 18.1992 32.0288 16.7643 30 16.7643C27.9711 16.7643 26.3265 18.1992 26.3265 19.9692C26.3265 21.7392 27.9711 23.1741 30 23.1741Z" fill="#0C0A0A"/>
</g>
<defs>
<clipPath id="clip0_2131_107">
<rect width="60" height="80" fill="white"/>
</clipPath>
</defs>
</svg>
