<svg width="81" height="80" viewBox="0 0 81 80" fill="none" xmlns="http://www.w3.org/2000/svg">
<path d="M40 67C54.6355 67 66.5 55.1355 66.5 40.5C66.5 25.8645 54.6355 14 40 14C25.3645 14 13.5 25.8645 13.5 40.5C13.5 55.1355 25.3645 67 40 67Z" fill="#1669AA"/>
<path d="M39.8875 55.6998C48.2477 55.6998 55.025 48.9225 55.025 40.5623C55.025 32.2021 48.2477 25.4248 39.8875 25.4248C31.5273 25.4248 24.75 32.2021 24.75 40.5623C24.75 48.9225 31.5273 55.6998 39.8875 55.6998Z" fill="#052952"/>
<path d="M24.0375 41.7002H17.875C17.5435 41.7002 17.2255 41.5685 16.9911 41.3341C16.7567 41.0997 16.625 40.7817 16.625 40.4502C16.625 40.1187 16.7567 39.8007 16.9911 39.5663C17.2255 39.3319 17.5435 39.2002 17.875 39.2002H24.0375C24.369 39.2002 24.687 39.3319 24.9214 39.5663C25.1558 39.8007 25.2875 40.1187 25.2875 40.4502C25.2875 40.7817 25.1558 41.0997 24.9214 41.3341C24.687 41.5685 24.369 41.7002 24.0375 41.7002Z" fill="#0C0A0A"/>
<path d="M39.8867 69.3742C32.2162 69.3676 24.8616 66.3184 19.4365 60.8957C14.0115 55.473 10.9591 48.1197 10.9492 40.4492C10.9492 40.1177 11.0809 39.7998 11.3153 39.5653C11.5498 39.3309 11.8677 39.1992 12.1992 39.1992C12.5307 39.1992 12.8487 39.3309 13.0831 39.5653C13.3175 39.7998 13.4492 40.1177 13.4492 40.4492C13.4591 47.4567 16.2481 54.1741 21.2043 59.128C26.1605 64.0818 32.8793 66.8676 39.8867 66.8742C40.2182 66.8742 40.5362 67.0059 40.7706 67.2403C41.005 67.4748 41.1367 67.7927 41.1367 68.1242C41.1367 68.4557 41.005 68.7737 40.7706 69.0081C40.5362 69.2425 40.2182 69.3742 39.8867 69.3742Z" fill="#0C0A0A"/>
<path d="M12.1992 41.7004C11.8677 41.7004 11.5498 41.5687 11.3153 41.3343C11.0809 41.0999 10.9492 40.7819 10.9492 40.4504C10.9591 32.7799 14.0115 25.4266 19.4365 20.0039C24.8616 14.5812 32.2162 11.532 39.8867 11.5254C40.2182 11.5254 40.5362 11.6571 40.7706 11.8915C41.005 12.1259 41.1367 12.4439 41.1367 12.7754C41.1367 13.1069 41.005 13.4249 40.7706 13.6593C40.5362 13.8937 40.2182 14.0254 39.8867 14.0254C32.8793 14.032 26.1605 16.8178 21.2043 21.7716C16.2481 26.7255 13.4591 33.4429 13.4492 40.4504C13.4492 40.7819 13.3175 41.0999 13.0831 41.3343C12.8487 41.5687 12.5307 41.7004 12.1992 41.7004Z" fill="#0C0A0A"/>
<path d="M39.8867 26.6742C39.5552 26.6742 39.2373 26.5425 39.0028 26.3081C38.7684 26.0737 38.6367 25.7557 38.6367 25.4242V18.1367C38.6367 17.8052 38.7684 17.4873 39.0028 17.2528C39.2373 17.0184 39.5552 16.8867 39.8867 16.8867C40.2182 16.8867 40.5362 17.0184 40.7706 17.2528C41.005 17.4873 41.1367 17.8052 41.1367 18.1367V25.4242C41.1367 25.5884 41.1044 25.7509 41.0416 25.9026C40.9787 26.0542 40.8867 26.192 40.7706 26.3081C40.6545 26.4242 40.5167 26.5163 40.3651 26.5791C40.2134 26.6419 40.0509 26.6742 39.8867 26.6742Z" fill="#0C0A0A"/>
<path d="M39.8867 69.3742C39.5552 69.3742 39.2373 69.2425 39.0028 69.0081C38.7684 68.7737 38.6367 68.4557 38.6367 68.1242C38.6367 67.7927 38.7684 67.4748 39.0028 67.2403C39.2373 67.0059 39.5552 66.8742 39.8867 66.8742C46.892 66.8643 53.6076 64.0771 58.5611 59.1236C63.5146 54.1701 66.3018 47.4545 66.3117 40.4492C66.3117 40.1177 66.4434 39.7998 66.6778 39.5653C66.9123 39.3309 67.2302 39.1992 67.5617 39.1992C67.8932 39.1992 68.2112 39.3309 68.4456 39.5653C68.68 39.7998 68.8117 40.1177 68.8117 40.4492C68.8018 48.1176 65.7512 55.469 60.3288 60.8913C54.9065 66.3137 47.5551 69.3643 39.8867 69.3742Z" fill="#0C0A0A"/>
<path d="M67.5617 41.7004C67.2302 41.7004 66.9123 41.5687 66.6778 41.3343C66.4434 41.0999 66.3117 40.7819 66.3117 40.4504C66.3018 33.4451 63.5146 26.7296 58.5611 21.7761C53.6076 16.8226 46.892 14.0353 39.8867 14.0254C39.5552 14.0254 39.2373 13.8937 39.0028 13.6593C38.7684 13.4249 38.6367 13.1069 38.6367 12.7754C38.6367 12.4439 38.7684 12.1259 39.0028 11.8915C39.2373 11.6571 39.5552 11.5254 39.8867 11.5254C47.5551 11.5353 54.9065 14.5859 60.3288 20.0083C65.7512 25.4306 68.8018 32.782 68.8117 40.4504C68.8117 40.7819 68.68 41.0999 68.4456 41.3343C68.2112 41.5687 67.8932 41.7004 67.5617 41.7004Z" fill="#0C0A0A"/>
<path d="M12.2 41.7002H8.0625C7.73098 41.7002 7.41304 41.5685 7.17862 41.3341C6.9442 41.0997 6.8125 40.7817 6.8125 40.4502C6.8125 40.1187 6.9442 39.8007 7.17862 39.5663C7.41304 39.3319 7.73098 39.2002 8.0625 39.2002H12.2C12.5315 39.2002 12.8495 39.3319 13.0839 39.5663C13.3183 39.8007 13.45 40.1187 13.45 40.4502C13.45 40.7817 13.3183 41.0997 13.0839 41.3341C12.8495 41.5685 12.5315 41.7002 12.2 41.7002Z" fill="#0C0A0A"/>
<path d="M71.75 41.7002H59.875C59.5435 41.7002 59.2255 41.5685 58.9911 41.3341C58.7567 41.0997 58.625 40.7817 58.625 40.4502C58.625 40.1187 58.7567 39.8007 58.9911 39.5663C59.2255 39.3319 59.5435 39.2002 59.875 39.2002H71.75C72.0815 39.2002 72.3995 39.3319 72.6339 39.5663C72.8683 39.8007 73 40.1187 73 40.4502C73 40.7817 72.8683 41.0997 72.6339 41.3341C72.3995 41.5685 72.0815 41.7002 71.75 41.7002Z" fill="#0C0A0A"/>
<path d="M39.8867 73.8867C39.5552 73.8867 39.2373 73.755 39.0028 73.5206C38.7684 73.2862 38.6367 72.9682 38.6367 72.6367V60.4492C38.6367 60.1177 38.7684 59.7998 39.0028 59.5653C39.2373 59.3309 39.5552 59.1992 39.8867 59.1992C40.2182 59.1992 40.5362 59.3309 40.7706 59.5653C41.005 59.7998 41.1367 60.1177 41.1367 60.4492V72.6367C41.1367 72.8009 41.1044 72.9634 41.0416 73.1151C40.9787 73.2667 40.8867 73.4045 40.7706 73.5206C40.6545 73.6367 40.5167 73.7287 40.3651 73.7916C40.2134 73.8544 40.0509 73.8867 39.8867 73.8867Z" fill="#0C0A0A"/>
<path d="M39.8867 13.8875C39.5552 13.8875 39.2373 13.7558 39.0028 13.5214C38.7684 13.287 38.6367 12.969 38.6367 12.6375V8.5C38.6367 8.16848 38.7684 7.85054 39.0028 7.61612C39.2373 7.3817 39.5552 7.25 39.8867 7.25C40.2182 7.25 40.5362 7.3817 40.7706 7.61612C41.005 7.85054 41.1367 8.16848 41.1367 8.5V12.6375C41.1367 12.8017 41.1044 12.9642 41.0416 13.1159C40.9787 13.2675 40.8867 13.4053 40.7706 13.5214C40.6545 13.6375 40.5167 13.7295 40.3651 13.7923C40.2134 13.8552 40.0509 13.8875 39.8867 13.8875Z" fill="#0C0A0A"/>
<path d="M39.8758 56.9498C35.5295 56.9498 31.3613 55.2233 28.2881 52.15C25.2148 49.0768 23.4883 44.9085 23.4883 40.5623C23.4883 36.2161 25.2148 32.0478 28.2881 28.9746C31.3613 25.9013 35.5295 24.1748 39.8758 24.1748C40.2073 24.1748 40.5252 24.3065 40.7597 24.5409C40.9941 24.7753 41.1258 25.0933 41.1258 25.4248C41.1258 25.7563 40.9941 26.0743 40.7597 26.3087C40.5252 26.5431 40.2073 26.6748 39.8758 26.6748C36.5238 26.6884 33.2897 27.9127 30.7691 30.1223C28.2485 32.3319 26.6113 35.378 26.1591 38.6993C25.7068 42.0206 26.47 45.3935 28.308 48.1966C30.146 50.9997 32.9351 53.0442 36.1614 53.9535C39.3877 54.8628 42.8339 54.5756 45.8651 53.1448C48.8964 51.714 51.3086 49.2361 52.6572 46.1674C54.0059 43.0987 54.2002 39.646 53.2045 36.4454C52.2087 33.2447 50.0898 30.5117 47.2383 28.7498C46.9565 28.5741 46.756 28.2936 46.681 27.9701C46.606 27.6466 46.6626 27.3066 46.8383 27.0248C47.014 26.743 47.2944 26.5426 47.6179 26.4675C47.9414 26.3925 48.2815 26.4491 48.5633 26.6248C51.5871 28.513 53.9128 31.3357 55.1876 34.665C56.4624 37.9942 56.6168 41.6484 55.6273 45.0733C54.6379 48.4982 52.5586 51.507 49.7047 53.6435C46.8509 55.78 43.3782 56.9276 39.8133 56.9123L39.8758 56.9498Z" fill="#0C0A0A"/>
<path d="M40.1367 51.1125C39.8052 51.1125 39.4873 50.9808 39.2528 50.7464C39.0184 50.512 38.8867 50.194 38.8867 49.8625V31.25C38.8867 30.9185 39.0184 30.6005 39.2528 30.3661C39.4873 30.1317 39.8052 30 40.1367 30C40.4682 30 40.7862 30.1317 41.0206 30.3661C41.255 30.6005 41.3867 30.9185 41.3867 31.25V49.8625C41.3867 50.194 41.255 50.512 41.0206 50.7464C40.7862 50.9808 40.4682 51.1125 40.1367 51.1125Z" fill="white"/>
<path d="M43.2633 42.4123H43.0133L36.1133 40.9873C36.0008 40.963 35.8917 40.9253 35.7883 40.8748C33.7633 39.8123 32.7383 38.5123 32.7383 37.0248V36.8373C32.8377 35.4862 33.4655 34.2287 34.4856 33.3372C35.5057 32.4458 36.8361 31.9922 38.1883 32.0748H41.5758C42.9288 31.9889 44.2609 32.4413 45.2818 33.3334C46.3027 34.2255 46.9295 35.485 47.0258 36.8373C47.0258 37.1688 46.8941 37.4867 46.6597 37.7212C46.4252 37.9556 46.1073 38.0873 45.7758 38.0873C45.4443 38.0873 45.1263 37.9556 44.8919 37.7212C44.6575 37.4867 44.5258 37.1688 44.5258 36.8373C44.4147 36.1554 44.0476 35.5416 43.4993 35.1212C42.9511 34.7007 42.2632 34.5053 41.5758 34.5748H38.1883C37.5009 34.5053 36.8129 34.7007 36.2647 35.1212C35.7165 35.5416 35.3494 36.1554 35.2383 36.8373V37.0248C35.2383 37.4623 35.8133 38.0373 36.8008 38.5748L43.5133 39.9998C43.8448 40.0329 44.1496 40.1964 44.3606 40.4543C44.5715 40.7122 44.6714 41.0433 44.6383 41.3748C44.6051 41.7063 44.4416 42.0111 44.1838 42.2221C43.9259 42.433 43.5948 42.5329 43.2633 42.4998V42.4123Z" fill="white"/>
<path d="M41.5758 48.9121H38.1883C36.834 48.9945 35.502 48.5392 34.4815 47.6452C33.461 46.7511 32.8346 45.4904 32.7383 44.1371C32.7383 43.8055 32.87 43.4876 33.1044 43.2532C33.3388 43.0188 33.6568 42.8871 33.9883 42.8871C34.3198 42.8871 34.6377 43.0188 34.8722 43.2532C35.1066 43.4876 35.2383 43.8055 35.2383 44.1371C35.3465 44.8212 35.7124 45.4381 36.261 45.8611C36.8095 46.2841 37.4991 46.4812 38.1883 46.4121H41.5758C42.2668 46.4907 42.9612 46.2972 43.5119 45.8725C44.0626 45.4478 44.4263 44.8253 44.5258 44.1371V43.9621C44.5258 43.6246 44.1008 43.0121 42.9008 42.3621L36.3008 41.0121C35.9693 40.9458 35.6777 40.7505 35.4901 40.4692C35.3973 40.3299 35.3327 40.1737 35.3003 40.0095C35.2678 39.8452 35.2679 39.6762 35.3008 39.5121C35.3336 39.3479 35.3985 39.1918 35.4916 39.0527C35.5848 38.9136 35.7044 38.7943 35.8437 38.7014C36.125 38.5139 36.4693 38.4458 36.8008 38.5121L43.5758 39.9996C43.6923 40.0238 43.8056 40.0615 43.9133 40.1121C46.4883 41.4746 47.0258 42.9746 47.0258 44.0121V44.1871C46.917 45.5314 46.2852 46.7795 45.2661 47.663C44.247 48.5466 42.922 48.995 41.5758 48.9121Z" fill="white"/>
</svg>
