<svg width="80" height="80" viewBox="0 0 80 80" fill="none" xmlns="http://www.w3.org/2000/svg">
<path d="M39.5 67C54.1355 67 66 55.1355 66 40.5C66 25.8645 54.1355 14 39.5 14C24.8645 14 13 25.8645 13 40.5C13 55.1355 24.8645 67 39.5 67Z" fill="#1669AA"/>
<path d="M39.3875 55.6998C47.7477 55.6998 54.525 48.9225 54.525 40.5623C54.525 32.2021 47.7477 25.4248 39.3875 25.4248C31.0273 25.4248 24.25 32.2021 24.25 40.5623C24.25 48.9225 31.0273 55.6998 39.3875 55.6998Z" fill="#052952"/>
<path d="M23.5375 41.7002H17.375C17.0435 41.7002 16.7255 41.5685 16.4911 41.3341C16.2567 41.0997 16.125 40.7817 16.125 40.4502C16.125 40.1187 16.2567 39.8007 16.4911 39.5663C16.7255 39.3319 17.0435 39.2002 17.375 39.2002H23.5375C23.869 39.2002 24.187 39.3319 24.4214 39.5663C24.6558 39.8007 24.7875 40.1187 24.7875 40.4502C24.7875 40.7817 24.6558 41.0997 24.4214 41.3341C24.187 41.5685 23.869 41.7002 23.5375 41.7002Z" fill="#0C0A0A"/>
<path d="M39.3867 69.3742C31.7162 69.3676 24.3616 66.3184 18.9365 60.8957C13.5115 55.473 10.4591 48.1197 10.4492 40.4492C10.4492 40.1177 10.5809 39.7998 10.8153 39.5653C11.0498 39.3309 11.3677 39.1992 11.6992 39.1992C12.0307 39.1992 12.3487 39.3309 12.5831 39.5653C12.8175 39.7998 12.9492 40.1177 12.9492 40.4492C12.9591 47.4567 15.7481 54.1741 20.7043 59.128C25.6605 64.0818 32.3793 66.8676 39.3867 66.8742C39.7182 66.8742 40.0362 67.0059 40.2706 67.2403C40.505 67.4748 40.6367 67.7927 40.6367 68.1242C40.6367 68.4557 40.505 68.7737 40.2706 69.0081C40.0362 69.2425 39.7182 69.3742 39.3867 69.3742Z" fill="#0C0A0A"/>
<path d="M11.6992 41.7004C11.3677 41.7004 11.0498 41.5687 10.8153 41.3343C10.5809 41.0999 10.4492 40.7819 10.4492 40.4504C10.4591 32.7799 13.5115 25.4266 18.9365 20.0039C24.3616 14.5812 31.7162 11.532 39.3867 11.5254C39.7182 11.5254 40.0362 11.6571 40.2706 11.8915C40.505 12.1259 40.6367 12.4439 40.6367 12.7754C40.6367 13.1069 40.505 13.4249 40.2706 13.6593C40.0362 13.8937 39.7182 14.0254 39.3867 14.0254C32.3793 14.032 25.6605 16.8178 20.7043 21.7716C15.7481 26.7255 12.9591 33.4429 12.9492 40.4504C12.9492 40.7819 12.8175 41.0999 12.5831 41.3343C12.3487 41.5687 12.0307 41.7004 11.6992 41.7004Z" fill="#0C0A0A"/>
<path d="M39.3867 26.6742C39.0552 26.6742 38.7373 26.5425 38.5028 26.3081C38.2684 26.0737 38.1367 25.7557 38.1367 25.4242V18.1367C38.1367 17.8052 38.2684 17.4873 38.5028 17.2528C38.7373 17.0184 39.0552 16.8867 39.3867 16.8867C39.7182 16.8867 40.0362 17.0184 40.2706 17.2528C40.505 17.4873 40.6367 17.8052 40.6367 18.1367V25.4242C40.6367 25.5884 40.6044 25.7509 40.5416 25.9026C40.4787 26.0542 40.3867 26.192 40.2706 26.3081C40.1545 26.4242 40.0167 26.5163 39.8651 26.5791C39.7134 26.6419 39.5509 26.6742 39.3867 26.6742Z" fill="#0C0A0A"/>
<path d="M39.3867 69.3742C39.0552 69.3742 38.7373 69.2425 38.5028 69.0081C38.2684 68.7737 38.1367 68.4557 38.1367 68.1242C38.1367 67.7927 38.2684 67.4748 38.5028 67.2403C38.7373 67.0059 39.0552 66.8742 39.3867 66.8742C46.392 66.8643 53.1076 64.0771 58.0611 59.1236C63.0146 54.1701 65.8018 47.4545 65.8117 40.4492C65.8117 40.1177 65.9434 39.7998 66.1778 39.5653C66.4123 39.3309 66.7302 39.1992 67.0617 39.1992C67.3932 39.1992 67.7112 39.3309 67.9456 39.5653C68.18 39.7998 68.3117 40.1177 68.3117 40.4492C68.3018 48.1176 65.2512 55.469 59.8288 60.8913C54.4065 66.3137 47.0551 69.3643 39.3867 69.3742Z" fill="#0C0A0A"/>
<path d="M67.0617 41.7004C66.7302 41.7004 66.4123 41.5687 66.1778 41.3343C65.9434 41.0999 65.8117 40.7819 65.8117 40.4504C65.8018 33.4451 63.0146 26.7296 58.0611 21.7761C53.1076 16.8226 46.392 14.0353 39.3867 14.0254C39.0552 14.0254 38.7373 13.8937 38.5028 13.6593C38.2684 13.4249 38.1367 13.1069 38.1367 12.7754C38.1367 12.4439 38.2684 12.1259 38.5028 11.8915C38.7373 11.6571 39.0552 11.5254 39.3867 11.5254C47.0551 11.5353 54.4065 14.5859 59.8288 20.0083C65.2512 25.4306 68.3018 32.782 68.3117 40.4504C68.3117 40.7819 68.18 41.0999 67.9456 41.3343C67.7112 41.5687 67.3932 41.7004 67.0617 41.7004Z" fill="#0C0A0A"/>
<path d="M11.7 41.7002H7.5625C7.23098 41.7002 6.91304 41.5685 6.67862 41.3341C6.4442 41.0997 6.3125 40.7817 6.3125 40.4502C6.3125 40.1187 6.4442 39.8007 6.67862 39.5663C6.91304 39.3319 7.23098 39.2002 7.5625 39.2002H11.7C12.0315 39.2002 12.3495 39.3319 12.5839 39.5663C12.8183 39.8007 12.95 40.1187 12.95 40.4502C12.95 40.7817 12.8183 41.0997 12.5839 41.3341C12.3495 41.5685 12.0315 41.7002 11.7 41.7002Z" fill="#0C0A0A"/>
<path d="M71.25 41.7002H59.375C59.0435 41.7002 58.7255 41.5685 58.4911 41.3341C58.2567 41.0997 58.125 40.7817 58.125 40.4502C58.125 40.1187 58.2567 39.8007 58.4911 39.5663C58.7255 39.3319 59.0435 39.2002 59.375 39.2002H71.25C71.5815 39.2002 71.8995 39.3319 72.1339 39.5663C72.3683 39.8007 72.5 40.1187 72.5 40.4502C72.5 40.7817 72.3683 41.0997 72.1339 41.3341C71.8995 41.5685 71.5815 41.7002 71.25 41.7002Z" fill="#0C0A0A"/>
<path d="M39.3867 73.8867C39.0552 73.8867 38.7373 73.755 38.5028 73.5206C38.2684 73.2862 38.1367 72.9682 38.1367 72.6367V60.4492C38.1367 60.1177 38.2684 59.7998 38.5028 59.5653C38.7373 59.3309 39.0552 59.1992 39.3867 59.1992C39.7182 59.1992 40.0362 59.3309 40.2706 59.5653C40.505 59.7998 40.6367 60.1177 40.6367 60.4492V72.6367C40.6367 72.8009 40.6044 72.9634 40.5416 73.1151C40.4787 73.2667 40.3867 73.4045 40.2706 73.5206C40.1545 73.6367 40.0167 73.7287 39.8651 73.7916C39.7134 73.8544 39.5509 73.8867 39.3867 73.8867Z" fill="#0C0A0A"/>
<path d="M39.3867 13.8875C39.0552 13.8875 38.7373 13.7558 38.5028 13.5214C38.2684 13.287 38.1367 12.969 38.1367 12.6375V8.5C38.1367 8.16848 38.2684 7.85054 38.5028 7.61612C38.7373 7.3817 39.0552 7.25 39.3867 7.25C39.7182 7.25 40.0362 7.3817 40.2706 7.61612C40.505 7.85054 40.6367 8.16848 40.6367 8.5V12.6375C40.6367 12.8017 40.6044 12.9642 40.5416 13.1159C40.4787 13.2675 40.3867 13.4053 40.2706 13.5214C40.1545 13.6375 40.0167 13.7295 39.8651 13.7923C39.7134 13.8552 39.5509 13.8875 39.3867 13.8875Z" fill="#0C0A0A"/>
<path d="M39.3758 56.9498C35.0295 56.9498 30.8613 55.2233 27.7881 52.15C24.7148 49.0768 22.9883 44.9085 22.9883 40.5623C22.9883 36.2161 24.7148 32.0478 27.7881 28.9746C30.8613 25.9013 35.0295 24.1748 39.3758 24.1748C39.7073 24.1748 40.0252 24.3065 40.2597 24.5409C40.4941 24.7753 40.6258 25.0933 40.6258 25.4248C40.6258 25.7563 40.4941 26.0743 40.2597 26.3087C40.0252 26.5431 39.7073 26.6748 39.3758 26.6748C36.0238 26.6884 32.7897 27.9127 30.2691 30.1223C27.7485 32.3319 26.1113 35.378 25.6591 38.6993C25.2068 42.0206 25.97 45.3935 27.808 48.1966C29.646 50.9997 32.4351 53.0442 35.6614 53.9535C38.8877 54.8628 42.3339 54.5756 45.3651 53.1448C48.3964 51.714 50.8086 49.2361 52.1572 46.1674C53.5059 43.0987 53.7002 39.646 52.7045 36.4454C51.7087 33.2447 49.5898 30.5117 46.7383 28.7498C46.4565 28.5741 46.256 28.2936 46.181 27.9701C46.106 27.6466 46.1626 27.3066 46.3383 27.0248C46.514 26.743 46.7944 26.5426 47.1179 26.4675C47.4414 26.3925 47.7815 26.4491 48.0633 26.6248C51.0871 28.513 53.4128 31.3357 54.6876 34.665C55.9624 37.9942 56.1168 41.6484 55.1273 45.0733C54.1379 48.4982 52.0586 51.507 49.2047 53.6435C46.3509 55.78 42.8782 56.9276 39.3133 56.9123L39.3758 56.9498Z" fill="#0C0A0A"/>
<g clip-path="url(#clip0_2129_37)">
<path d="M31.625 32.625C31.625 32.625 34.7105 32.625 36.6875 32.625M42.875 55.125L33.875 45.125C33.875 45.125 35.5625 45.125 36.6875 45.125C37.8125 45.125 43.4375 45.125 43.4375 38.875C43.4375 32.625 37.8125 32.625 36.6875 32.625M47.375 32.625C47.375 32.625 39.9825 32.625 36.6875 32.625M31.625 38.875H47.375" stroke="#EFEEF1" stroke-width="3"/>
</g>
<defs>
<clipPath id="clip0_2129_37">
<rect width="15.75" height="22.5" fill="white" transform="translate(31.625 30.75)"/>
</clipPath>
</defs>
</svg>
