<svg width="80" height="80" viewBox="0 0 80 80" fill="none" xmlns="http://www.w3.org/2000/svg">
<path d="M53.2919 13.5294L35.5424 4.99316L17.793 13.5118L35.5336 22.0745V41.169L53.2831 32.6239L53.2919 13.5294Z" fill="#052952"/>
<path d="M35.5424 4.99316L53.2919 13.5294L35.5336 22.0745L17.793 13.5118L35.5424 4.99316Z" fill="#1669AA"/>
<path d="M29.2397 56.4131C29.0644 56.4078 28.8929 56.3603 28.7399 56.2746C28.5868 56.1889 28.4567 56.0675 28.3606 55.9208L22.9628 47.6395L22.9101 47.5515C21.6969 45.1955 19.1738 43.2438 16.7035 44.0351L15.9123 44.29L17.943 48.0351C18.0269 48.161 18.0837 48.3031 18.1097 48.4522C18.1356 48.6014 18.1303 48.7543 18.0939 48.9012C18.0575 49.0481 17.991 49.1859 17.8985 49.3057C17.8059 49.4255 17.6895 49.5247 17.5565 49.597C17.4235 49.6693 17.2769 49.7131 17.1261 49.7257C16.9752 49.7382 16.8234 49.7192 16.6803 49.6699C16.5372 49.6205 16.406 49.5419 16.2949 49.439C16.1839 49.3362 16.0955 49.2113 16.0353 49.0724L13.398 44.2021C13.3221 44.07 13.2757 43.923 13.2621 43.7712C13.2484 43.6194 13.2678 43.4665 13.3189 43.323C13.3637 43.1832 13.4368 43.0541 13.5336 42.9437C13.6304 42.8333 13.7488 42.744 13.8815 42.6812L14.198 42.5493L16.0353 41.9515C19.6485 40.7735 23.1826 43.3318 24.8266 46.4702L30.1892 54.7076C30.2745 54.8313 30.333 54.9715 30.3611 55.1192C30.3891 55.2668 30.3861 55.4187 30.3522 55.5651C30.3183 55.7115 30.2542 55.8493 30.1641 55.9695C30.074 56.0898 29.9598 56.19 29.8288 56.2636C29.6515 56.3706 29.4465 56.4226 29.2397 56.4131Z" fill="#0C0A0A"/>
<path d="M64.1754 72.879H51.683C51.5534 72.8837 51.4243 72.8597 51.305 72.8086L22.2061 62.013C22.1235 61.9853 22.0462 61.9437 21.9776 61.89L3.3314 49.0636C3.21053 48.9825 3.1076 48.8774 3.02897 48.755C2.95034 48.6325 2.89768 48.4952 2.87425 48.3515C2.84987 48.1952 2.86007 48.0355 2.90412 47.8836C2.94817 47.7317 3.025 47.5914 3.1292 47.4724L4.67645 45.89C7.36656 43.1999 11.7094 43.8768 14.5666 45.89L29.705 54.6812H32.1753C30.8886 53.2273 30.1869 51.3478 30.2061 49.4064L30.2852 48.5801C30.3133 48.3119 30.4389 48.0633 30.6383 47.8818C30.8377 47.7002 31.0969 47.5983 31.3666 47.5955H52.0347C52.3 47.5963 52.5561 47.6931 52.7556 47.868L60.4391 54.6284H64.1754C64.4645 54.6284 64.7417 54.7433 64.9462 54.9477C65.1506 55.1521 65.2655 55.4294 65.2655 55.7185C65.2655 56.0077 65.1506 56.2849 64.9462 56.4894C64.7417 56.6938 64.4645 56.8086 64.1754 56.8086H60.0259C59.7629 56.8098 59.5089 56.7126 59.3138 56.5361L51.6303 49.7757H32.3775C32.4578 51.1293 33.0118 52.4114 33.9424 53.3977C34.6168 54.1592 35.5647 54.6236 36.5797 54.69H48.105C48.2558 54.6764 48.4078 54.6944 48.5512 54.7427C48.6947 54.7911 48.8265 54.8689 48.9383 54.971C49.05 55.0732 49.1393 55.1975 49.2003 55.336C49.2614 55.4745 49.2929 55.6243 49.2929 55.7757C49.2929 55.9271 49.2614 56.0768 49.2003 56.2154C49.1393 56.3539 49.05 56.4782 48.9383 56.5803C48.8265 56.6825 48.6947 56.7602 48.5512 56.8086C48.4078 56.857 48.2558 56.875 48.105 56.8614H29.4149C29.2245 56.8596 29.0374 56.8113 28.8699 56.7207L13.4237 47.7889L13.3358 47.7273C11.1907 46.1801 8.06107 45.5823 6.21491 47.4196L5.63469 48.0086L23.0852 60.0174L51.8677 70.7075H64.1754C64.4464 70.732 64.6986 70.8569 64.8822 71.0578C65.0658 71.2587 65.1677 71.5211 65.1677 71.7933C65.1677 72.0654 65.0658 72.3278 64.8822 72.5287C64.6986 72.7296 64.4464 72.8546 64.1754 72.879Z" fill="#0C0A0A"/>
<path d="M71.9739 76.2374H64.176C63.8869 76.2374 63.6097 76.1225 63.4052 75.9181C63.2008 75.7136 63.0859 75.4364 63.0859 75.1473V50.6462C63.0859 50.357 63.2008 50.0798 63.4052 49.8753C63.6097 49.6709 63.8869 49.556 64.176 49.556H76.0881C76.2389 49.5425 76.3909 49.5604 76.5343 49.6088C76.6778 49.6572 76.8096 49.735 76.9214 49.8371C77.0331 49.9392 77.1224 50.0635 77.1834 50.2021C77.2445 50.3406 77.276 50.4904 77.276 50.6418C77.276 50.7932 77.2445 50.9429 77.1834 51.0814C77.1224 51.22 77.0331 51.3443 76.9214 51.4464C76.8096 51.5486 76.6778 51.6263 76.5343 51.6747C76.3909 51.7231 76.2389 51.7411 76.0881 51.7275H65.3013V74.0659H71.9739C72.1246 74.0524 72.2766 74.0703 72.4201 74.1187C72.5635 74.1671 72.6953 74.2449 72.8071 74.347C72.9188 74.4491 73.0081 74.5734 73.0691 74.712C73.1302 74.8505 73.1618 75.0002 73.1618 75.1516C73.1618 75.303 73.1302 75.4528 73.0691 75.5913C73.0081 75.7299 72.9188 75.8542 72.8071 75.9563C72.6953 76.0584 72.5635 76.1362 72.4201 76.1846C72.2766 76.233 72.1246 76.2509 71.9739 76.2374Z" fill="#0C0A0A"/>
<path d="M35.5427 42.2512C35.3786 42.2519 35.2163 42.2158 35.068 42.1457L17.3185 33.6094C17.1336 33.5199 16.9777 33.3801 16.8688 33.2059C16.7599 33.0316 16.7025 32.8302 16.7031 32.6248V13.5215C16.7088 13.3442 16.7584 13.1711 16.8473 13.0177C16.9363 12.8643 17.062 12.7353 17.213 12.6424C17.3695 12.5443 17.5482 12.4872 17.7326 12.4765C17.917 12.4657 18.1011 12.5016 18.268 12.5808L36.0438 21.0995C36.2287 21.189 36.3846 21.3289 36.4935 21.5031C36.6024 21.6773 36.6598 21.8787 36.6592 22.0841V41.1698C36.6584 41.3541 36.6113 41.5352 36.5222 41.6965C36.4331 41.8578 36.3049 41.9942 36.1493 42.0929C35.9662 42.2021 35.7558 42.2569 35.5427 42.2512ZM18.8833 31.9391L34.4526 39.438V22.7347L18.8833 15.2534V31.9391Z" fill="#0C0A0A"/>
<path d="M35.5443 23.1465C35.3802 23.1473 35.218 23.1112 35.0696 23.041L17.3202 14.496C17.1363 14.4065 16.9814 14.2672 16.8729 14.0939C16.7645 13.9205 16.707 13.7202 16.707 13.5158C16.707 13.3113 16.7645 13.111 16.8729 12.9377C16.9814 12.7644 17.1363 12.625 17.3202 12.5356L35.0784 4.00808C35.2254 3.93846 35.3861 3.90234 35.5487 3.90234C35.7114 3.90234 35.872 3.93846 36.0191 4.00808L53.7597 12.5531C53.945 12.6407 54.1018 12.7787 54.2122 12.9513C54.3226 13.1239 54.3821 13.3241 54.3839 13.529C54.3827 13.7351 54.3235 13.9367 54.2131 14.1109C54.1028 14.285 53.9456 14.4245 53.7597 14.5136L36.0454 23.041C35.8892 23.1155 35.7174 23.1517 35.5443 23.1465ZM20.3092 13.4762L35.5443 20.8169L50.7795 13.4938L35.5443 6.19709L20.3092 13.4762Z" fill="#0C0A0A"/>
<path d="M35.5432 42.2512C35.3391 42.252 35.1385 42.1973 34.963 42.0929C34.8075 41.9942 34.6792 41.8579 34.5901 41.6966C34.501 41.5352 34.4539 41.3541 34.4531 41.1699V22.0754C34.4525 21.8699 34.5099 21.6685 34.6188 21.4943C34.7277 21.3201 34.8836 21.1802 35.0685 21.0907L52.8092 12.5457C52.976 12.4665 53.1601 12.4306 53.3445 12.4413C53.5289 12.4521 53.7076 12.5091 53.8641 12.6072C54.0152 12.7002 54.1408 12.8291 54.2298 12.9826C54.3188 13.136 54.3683 13.3091 54.374 13.4863V32.6248C54.3726 32.8298 54.3143 33.0304 54.2057 33.2042C54.097 33.378 53.9423 33.5183 53.7586 33.6094L36.0443 42.1457C35.8881 42.2201 35.7163 42.2563 35.5432 42.2512ZM36.6246 22.7523V39.4556L52.1938 31.9567V15.2534L36.6246 22.7523Z" fill="#0C0A0A"/>
<path d="M26.6632 18.8748C26.4144 18.8793 26.1718 18.7978 25.9761 18.6442C25.7804 18.4906 25.6437 18.2743 25.589 18.0316C25.5343 17.7889 25.5649 17.5348 25.6757 17.3121C25.7865 17.0894 25.9707 16.9116 26.1972 16.8089L43.9555 8.28143C44.2172 8.15945 44.5162 8.14448 44.7888 8.23973C45.0614 8.33497 45.286 8.53289 45.4148 8.79132C45.5388 9.05141 45.5547 9.35 45.4592 9.62181C45.3636 9.89362 45.1644 10.1165 44.9049 10.2419L27.1555 18.7693C27.0011 18.8401 26.833 18.8761 26.6632 18.8748Z" fill="#0C0A0A"/>
<path d="M29.0111 27.253C28.8471 27.2526 28.6851 27.2166 28.5364 27.1475L23.2616 24.6244C23.1222 24.5696 22.9955 24.4866 22.8896 24.3807C22.7836 24.2747 22.7007 24.148 22.6459 24.0086C22.591 23.8691 22.5656 23.7199 22.571 23.5701C22.5765 23.4204 22.6128 23.2734 22.6776 23.1383C22.7424 23.0032 22.8344 22.8829 22.9478 22.7849C23.0612 22.687 23.1935 22.6135 23.3366 22.5689C23.4797 22.5244 23.6304 22.5099 23.7794 22.5263C23.9283 22.5426 24.0723 22.5895 24.2023 22.664L29.477 25.187C29.6063 25.2482 29.7221 25.3344 29.8179 25.4406C29.9136 25.5468 29.9873 25.671 30.0347 25.8059C30.0821 25.9408 30.1023 26.0838 30.0941 26.2265C30.0859 26.3693 30.0495 26.509 29.9869 26.6376C29.9007 26.8232 29.7628 26.9799 29.5897 27.0891C29.4166 27.1982 29.2157 27.2551 29.0111 27.253Z" fill="#0C0A0A"/>
</svg>
