<svg width="81" height="80" viewBox="0 0 81 80" fill="none" xmlns="http://www.w3.org/2000/svg">
<path d="M61.85 42.8625H59.8375C59.6717 42.8625 59.5128 42.9284 59.3956 43.0456C59.2783 43.1628 59.2125 43.3218 59.2125 43.4875C59.2125 43.6533 59.2783 43.8122 59.3956 43.9295C59.5128 44.0467 59.6717 44.1125 59.8375 44.1125H61.0125C61.7082 44.1595 62.36 44.469 62.8362 44.9784C63.3123 45.4878 63.5772 46.159 63.5772 46.8563C63.5772 47.5535 63.3123 48.2248 62.8362 48.7341C62.36 49.2435 61.7082 49.553 61.0125 49.6H59C58.8342 49.6 58.6753 49.6659 58.5581 49.7831C58.4408 49.9003 58.375 50.0592 58.375 50.225C58.375 50.3908 58.4408 50.5497 58.5581 50.667C58.6753 50.7842 58.8342 50.85 59 50.85H60.1625C60.5384 50.8246 60.9155 50.8767 61.2704 51.0031C61.6253 51.1295 61.9505 51.3275 62.2257 51.5848C62.5009 51.842 62.7203 52.1531 62.8704 52.4987C63.0204 52.8443 63.0978 53.217 63.0978 53.5938C63.0978 53.9705 63.0204 54.3432 62.8704 54.6888C62.7203 55.0344 62.5009 55.3455 62.2257 55.6027C61.9505 55.86 61.6253 56.058 61.2704 56.1844C60.9155 56.3108 60.5384 56.3629 60.1625 56.3375H40.5C39.6927 56.262 38.9149 55.996 38.2304 55.5614C37.5459 55.1268 36.9743 54.536 36.5625 53.8375C36.4125 53.5625 35.925 52.725 30.4375 53V36.625H33.2875C33.3625 36.625 35.15 35.975 36.0125 33.0625C36.9518 30.2883 38.8841 27.9597 41.4375 26.525C41.575 26.4375 42.7625 25.6 42.9 23.0375C43.0125 20.9 42.9 16.7875 42.9 16.6625C42.8675 16.5609 42.8675 16.4516 42.9 16.35C43.0125 16.2125 43.5625 15.775 45.675 15.95C49.425 16.275 49.425 20.15 49.425 20.3375L49.55 27.45C49.569 28.2752 49.8943 29.0638 50.4625 29.6625C50.8482 30.0223 51.3032 30.2998 51.7996 30.4782C52.296 30.6565 52.8235 30.732 53.35 30.7L61.8875 30.6375C62.5832 30.6845 63.235 30.994 63.7112 31.5034C64.1873 32.0128 64.4522 32.684 64.4522 33.3813C64.4522 34.0785 64.1873 34.7498 63.7112 35.2591C63.235 35.7685 62.5832 36.078 61.8875 36.125H60.7125C60.5477 36.1282 60.3906 36.1951 60.2741 36.3116C60.1576 36.4281 60.0907 36.5853 60.0875 36.75C60.0875 36.9158 60.1533 37.0747 60.2706 37.192C60.3878 37.3092 60.5467 37.375 60.7125 37.375H61.8875C62.6168 37.375 63.3163 37.6647 63.832 38.1805C64.3478 38.6962 64.6375 39.3957 64.6375 40.125C64.6375 40.8544 64.3478 41.5538 63.832 42.0696C63.3163 42.5853 62.6168 42.875 61.8875 42.875L61.85 42.8625Z" fill="#1669AA"/>
<path d="M24.5508 53.7002C25.2411 53.7002 25.8008 53.1406 25.8008 52.4502C25.8008 51.7598 25.2411 51.2002 24.5508 51.2002C23.8604 51.2002 23.3008 51.7598 23.3008 52.4502C23.3008 53.1406 23.8604 53.7002 24.5508 53.7002Z" fill="#0C0A0A"/>
<path d="M15.3883 30.7369C15.7198 30.7369 16.0377 30.6052 16.2722 30.3708C16.5066 30.1364 16.6383 29.8184 16.6383 29.4869V24.9994C16.6383 22.1869 18.3008 20.9619 20.3883 20.9619H27.2258C27.5573 20.9619 27.8752 20.8302 28.1097 20.5958C28.3441 20.3614 28.4758 20.0434 28.4758 19.7119C28.4758 19.3804 28.3441 19.0625 28.1097 18.828C27.8752 18.5936 27.5573 18.4619 27.2258 18.4619H20.4258C16.4258 18.4619 14.1758 20.3994 14.1758 24.9994V29.5494C14.1914 29.8636 14.3249 30.1604 14.5496 30.3805C14.7744 30.6006 15.0738 30.7279 15.3883 30.7369Z" fill="#0C0A0A"/>
<path d="M29.5 34H19.5V56H29.5V34Z" fill="#052952"/>
<path d="M69.1508 18.3994H63.0008C62.6693 18.3994 62.3513 18.5311 62.1169 18.7655C61.8825 19 61.7508 19.3179 61.7508 19.6494C61.7508 19.9809 61.8825 20.2989 62.1169 20.5333C62.3513 20.7677 62.6693 20.8994 63.0008 20.8994H69.1758C69.8388 20.8994 70.4747 21.1628 70.9436 21.6316C71.4124 22.1005 71.6758 22.7364 71.6758 23.3994V61.3744C71.6758 62.0375 71.4124 62.6733 70.9436 63.1422C70.4747 63.611 69.8388 63.8744 69.1758 63.8744H58.7508C58.4193 63.8744 58.1013 64.0061 57.8669 64.2405C57.6325 64.475 57.5008 64.7929 57.5008 65.1244C57.5008 65.4559 57.6325 65.7739 57.8669 66.0083C58.1013 66.2427 58.4193 66.3744 58.7508 66.3744H59.4758V70.2494L50.5008 64.1369C50.2939 63.9979 50.0501 63.9239 49.8008 63.9244H19.1758C18.5127 63.9244 17.8769 63.661 17.408 63.1922C16.9392 62.7233 16.6758 62.0875 16.6758 61.4244C16.6758 61.0929 16.5441 60.7749 16.3097 60.5405C16.0752 60.3061 15.7573 60.1744 15.4258 60.1744C15.0943 60.1744 14.7763 60.3061 14.5419 60.5405C14.3075 60.7749 14.1758 61.0929 14.1758 61.4244C14.1758 62.7505 14.7026 64.0223 15.6402 64.9599C16.5779 65.8976 17.8497 66.4244 19.1758 66.4244H49.3883L60.0258 73.6369C60.2139 73.7641 60.4332 73.8376 60.6599 73.8496C60.8867 73.8615 61.1124 73.8115 61.3129 73.7048C61.5134 73.5982 61.681 73.4389 61.7978 73.2441C61.9146 73.0494 61.9761 72.8265 61.9758 72.5994V66.4244H69.1508C70.4769 66.4244 71.7486 65.8976 72.6863 64.9599C73.624 64.0223 74.1508 62.7505 74.1508 61.4244V23.4494C74.1574 22.7886 74.0329 22.133 73.7846 21.5206C73.5363 20.9082 73.1691 20.3511 72.7041 19.8815C72.2392 19.4119 71.6857 19.0391 71.0758 18.7847C70.4659 18.5303 69.8116 18.3994 69.1508 18.3994Z" fill="#0C0A0A"/>
<path d="M19.4004 57.5008H29.6879C30.0194 57.5008 30.3374 57.3691 30.5718 57.1347C30.8062 56.9003 30.9379 56.5823 30.9379 56.2508V37.2633H33.3504C33.9629 37.2633 35.5129 36.5508 36.4879 33.2883C37.3468 30.7056 39.1268 28.5297 41.4879 27.1758L41.6004 27.1008C41.8629 26.9383 43.2004 25.9383 43.3379 23.1258C43.4504 21.0758 43.3379 17.3008 43.3379 16.7633C44.0381 16.5492 44.7787 16.5021 45.5004 16.6258C48.5629 16.9008 48.6254 20.0133 48.6254 20.3758L48.7504 27.4758C48.7573 28.4664 49.1469 29.4159 49.8379 30.1258C50.2812 30.552 50.8072 30.8828 51.3834 31.0978C51.9596 31.3128 52.5737 31.4074 53.1879 31.3758L61.7504 31.2508C62.0423 31.2284 62.3357 31.2665 62.6122 31.3628C62.8887 31.4591 63.1423 31.6115 63.3571 31.8104C63.5719 32.0094 63.7433 32.2505 63.8605 32.5188C63.9777 32.7871 64.0382 33.0768 64.0382 33.3695C64.0382 33.6623 63.9777 33.952 63.8605 34.2202C63.7433 34.4885 63.5719 34.7297 63.3571 34.9287C63.1423 35.1276 62.8887 35.28 62.6122 35.3763C62.3357 35.4726 62.0423 35.5107 61.7504 35.4883C61.7504 35.4883 60.4129 35.4883 60.3629 35.4883C58.9004 35.5633 58.9129 37.8633 60.2879 37.8758C60.5879 37.8758 61.7504 37.9383 61.7504 37.9383C62.314 37.9383 62.8545 38.1622 63.253 38.5607C63.6515 38.9592 63.8754 39.4997 63.8754 40.0633C63.8754 40.6269 63.6515 41.1674 63.253 41.5659C62.8545 41.9644 62.314 42.1883 61.7504 42.1883H59.7504C59.4189 42.1883 59.1009 42.32 58.8665 42.5544C58.6321 42.7888 58.5004 43.1068 58.5004 43.4383C58.5004 43.7698 58.6321 44.0878 58.8665 44.3222C59.1009 44.5566 59.4189 44.6883 59.7504 44.6883H60.9254C61.4592 44.7293 61.9579 44.9704 62.3217 45.3632C62.6854 45.756 62.8875 46.2716 62.8875 46.807C62.8875 47.3424 62.6854 47.8581 62.3217 48.2509C61.9579 48.6437 61.4592 48.8848 60.9254 48.9258H58.9504C58.6189 48.9258 58.3009 49.0575 58.0665 49.2919C57.8321 49.5263 57.7004 49.8443 57.7004 50.1758C57.7004 50.5073 57.8321 50.8253 58.0665 51.0597C58.3009 51.2941 58.6189 51.4258 58.9504 51.4258H60.1129C60.4048 51.4034 60.6982 51.4415 60.9747 51.5378C61.2512 51.6341 61.5048 51.7865 61.7196 51.9854C61.9344 52.1844 62.1058 52.4255 62.223 52.6938C62.3402 52.9621 62.4008 53.2518 62.4007 53.5445C62.4008 53.8373 62.3402 54.127 62.223 54.3952C62.1058 54.6635 61.9344 54.9047 61.7196 55.1037C61.5048 55.3026 61.2512 55.455 60.9747 55.5513C60.6982 55.6476 60.4048 55.6857 60.1129 55.6633H40.5004C39.7897 55.5973 39.1039 55.3678 38.4967 54.9926C37.8895 54.6175 37.3774 54.1069 37.0004 53.5008C36.7208 53.0461 36.3031 52.6928 35.8082 52.4926C35.3134 52.2924 34.7675 52.2559 34.2504 52.3883C33.9413 52.4762 33.6779 52.6798 33.515 52.9568C33.3521 53.2338 33.3021 53.5629 33.3754 53.8758C33.45 54.1938 33.6461 54.47 33.9218 54.6452C34.1975 54.8204 34.5308 54.8807 34.8504 54.8133H34.9254C35.5015 55.7823 36.3016 56.5991 37.2586 57.1951C38.2156 57.791 39.3016 58.1488 40.4254 58.2383H60.1754C61.0592 58.2461 61.9264 57.9984 62.6728 57.525C63.4192 57.0516 64.0129 56.3727 64.3826 55.5699C64.7523 54.7671 64.8823 53.8746 64.7568 52.9997C64.6313 52.1248 64.2558 51.3048 63.6754 50.6383C64.202 50.2734 64.6458 49.8018 64.978 49.254C65.3102 48.7063 65.5233 48.0947 65.6035 47.4592C65.6837 46.8236 65.6291 46.1783 65.4433 45.5652C65.2576 44.9521 64.9448 44.385 64.5254 43.9008C65.0871 43.5064 65.5532 42.991 65.8893 42.3925C66.2254 41.7941 66.4229 41.1278 66.4673 40.4429C66.5117 39.758 66.4018 39.0718 66.1457 38.435C65.8897 37.7981 65.494 37.2269 64.9879 36.7633C65.4571 36.3352 65.8317 35.814 66.0879 35.2328C66.344 34.6516 66.476 34.0234 66.4754 33.3883C66.4772 32.7714 66.3556 32.1603 66.1177 31.5911C65.8797 31.0219 65.5304 30.5061 65.0901 30.0739C64.6498 29.6418 64.1275 29.3021 63.5539 29.0749C62.9804 28.8476 62.3672 28.7375 61.7504 28.7508L53.2254 28.8133C51.5754 28.8133 51.3129 27.9508 51.3004 27.4258L51.1754 20.3508C51.2593 18.8106 50.7418 17.2981 49.732 16.1321C48.7223 14.9662 47.2992 14.2378 45.7629 14.1008C43.5754 13.9133 42.1379 14.2508 41.3879 15.1508C41.1949 15.3787 41.0508 15.644 40.9648 15.93C40.8788 16.216 40.8526 16.5167 40.8879 16.8133C40.8879 17.4508 40.9629 21.0633 40.8879 22.9508C40.9179 23.6796 40.7118 24.3985 40.3004 25.0008C37.3392 26.6507 35.1078 29.3551 34.0504 32.5758C33.6004 34.0758 32.9629 34.8008 32.6379 34.8258H30.9379V33.5758C30.9379 33.2443 30.8062 32.9263 30.5718 32.6919C30.3374 32.4575 30.0194 32.3258 29.6879 32.3258H19.4004C19.0689 32.3258 18.7509 32.4575 18.5165 32.6919C18.2821 32.9263 18.1504 33.2443 18.1504 33.5758V33.6883H9.15039C8.81887 33.6883 8.50093 33.82 8.26651 34.0544C8.03209 34.2888 7.90039 34.6068 7.90039 34.9383C7.90039 35.2698 8.03209 35.5878 8.26651 35.8222C8.50093 36.0566 8.81887 36.1883 9.15039 36.1883H18.1504V53.9508H9.15039C8.81887 53.9508 8.50093 54.0825 8.26651 54.3169C8.03209 54.5513 7.90039 54.8693 7.90039 55.2008C7.90039 55.5323 8.03209 55.8503 8.26651 56.0847C8.50093 56.3191 8.81887 56.4508 9.15039 56.4508H18.1879C18.2348 56.7402 18.3819 57.004 18.6035 57.1959C18.8252 57.3878 19.1072 57.4958 19.4004 57.5008ZM20.6504 34.7133H28.4379V55.0008H20.6504V34.7383V34.7133Z" fill="#0C0A0A"/>
<path d="M45.3008 11.9369C45.6323 11.9369 45.9502 11.8052 46.1847 11.5708C46.4191 11.3364 46.5508 11.0184 46.5508 10.6869V8.08691C46.5508 7.75539 46.4191 7.43745 46.1847 7.20303C45.9502 6.96861 45.6323 6.83691 45.3008 6.83691C44.9693 6.83691 44.6513 6.96861 44.4169 7.20303C44.1825 7.43745 44.0508 7.75539 44.0508 8.08691V10.6869C44.0508 11.0184 44.1825 11.3364 44.4169 11.5708C44.6513 11.8052 44.9693 11.9369 45.3008 11.9369Z" fill="#0C0A0A"/>
<path d="M51.5374 13.6506C51.7189 13.6491 51.8979 13.608 52.062 13.5303C52.226 13.4526 52.3712 13.3401 52.4874 13.2006L54.4999 10.8006C54.712 10.5453 54.8141 10.2162 54.7836 9.88568C54.7532 9.55515 54.5926 9.25026 54.3374 9.03809C54.0821 8.82592 53.753 8.72384 53.4225 8.75431C53.0919 8.78479 52.787 8.94532 52.5749 9.20059L50.5749 11.6006C50.4696 11.7269 50.3903 11.8727 50.3415 12.0297C50.2927 12.1867 50.2753 12.3518 50.2904 12.5156C50.3055 12.6793 50.3528 12.8384 50.4295 12.9838C50.5062 13.1293 50.6108 13.2582 50.7374 13.3631C50.9622 13.5494 51.2453 13.6512 51.5374 13.6506Z" fill="#0C0A0A"/>
<path d="M53.5881 17.3367C53.6589 17.6118 53.8213 17.8545 54.0486 18.0249C54.2758 18.1953 54.5542 18.2832 54.8381 18.2742C54.9461 18.2863 55.0551 18.2863 55.1631 18.2742L57.5756 17.6242C57.7429 17.5908 57.9016 17.5235 58.0419 17.4265C58.1822 17.3295 58.3011 17.2047 58.3914 17.06C58.4817 16.9152 58.5414 16.7535 58.5669 16.5848C58.5923 16.4161 58.5829 16.244 58.5394 16.0791C58.4958 15.9141 58.4189 15.7599 58.3134 15.6258C58.208 15.4917 58.0762 15.3806 57.9262 15.2993C57.7762 15.2181 57.6111 15.1684 57.4412 15.1533C57.2713 15.1383 57.1 15.1581 56.9381 15.2117L54.5131 15.8617C54.1974 15.9391 53.9242 16.1364 53.7516 16.4117C53.5789 16.6871 53.5202 17.0189 53.5881 17.3367Z" fill="#0C0A0A"/>
<path d="M38.3983 13.2006C38.5159 13.3417 38.663 13.4552 38.8294 13.533C38.9957 13.6107 39.1772 13.6509 39.3608 13.6506C39.6529 13.6512 39.9359 13.5495 40.1608 13.3631C40.2874 13.2582 40.392 13.1293 40.4687 12.9839C40.5454 12.8384 40.5926 12.6793 40.6077 12.5156C40.6228 12.3519 40.6055 12.1868 40.5567 12.0298C40.5079 11.8728 40.4286 11.7269 40.3233 11.6006L38.3108 9.20061C38.2104 9.06131 38.0823 8.9442 37.9346 8.85658C37.7869 8.76896 37.6228 8.71272 37.4524 8.69135C37.282 8.66999 37.109 8.68396 36.9443 8.7324C36.7795 8.78084 36.6265 8.86272 36.4948 8.97291C36.3631 9.0831 36.2555 9.21925 36.1787 9.37286C36.102 9.52648 36.0577 9.69426 36.0486 9.86575C36.0396 10.0372 36.0659 10.2088 36.1261 10.3696C36.1863 10.5304 36.2789 10.6772 36.3983 10.8006L38.3983 13.2006Z" fill="#0C0A0A"/>
<path d="M33.363 17.5751L35.788 18.2251C35.896 18.238 36.0051 18.238 36.113 18.2251C36.4445 18.2665 36.779 18.1746 37.0427 17.9694C37.3064 17.7643 37.4778 17.4628 37.5193 17.1313C37.5607 16.7998 37.4688 16.4654 37.2636 16.2017C37.0585 15.9379 36.757 15.7665 36.4255 15.7251L34.013 15.0751C33.6931 14.9912 33.353 15.0375 33.0672 15.2038C32.7814 15.3702 32.5731 15.643 32.488 15.9626C32.4327 16.1257 32.4118 16.2985 32.4264 16.4702C32.4411 16.6418 32.491 16.8086 32.5732 16.96C32.6554 17.1114 32.7679 17.2442 32.9039 17.3501C33.0398 17.4559 33.1961 17.5325 33.363 17.5751Z" fill="#0C0A0A"/>
</svg>
