<svg width="80" height="80" viewBox="0 0 80 80" fill="none" xmlns="http://www.w3.org/2000/svg">
<path d="M39.9119 55.3847L22.1713 46.866V27.7627L39.9207 19.2352V4.49231L7.99106 13.9341C7.99106 13.9341 -0.000156403 63.2 39.9207 75.789H40.079L39.9119 55.3847Z" fill="#1669AA"/>
<path d="M57.6528 46.866L39.9121 55.411V36.3165L57.6528 27.7715V46.866Z" fill="#052952"/>
<path d="M40.0777 76.8796H39.9195C39.806 76.8799 39.6933 76.8621 39.5854 76.8268C22.8821 71.5521 11.9107 58.9455 7.93709 40.3697C6.0962 31.6208 5.74843 22.6236 6.90852 13.7587C6.94245 13.5545 7.03292 13.3639 7.16966 13.2085C7.30639 13.0532 7.48393 12.9392 7.68214 12.8796L39.6118 3.44661C39.7139 3.43316 39.8174 3.43316 39.9195 3.44661H40.0777C40.1799 3.43444 40.2832 3.43444 40.3854 3.44661L72.3063 12.8884C72.5045 12.948 72.6821 13.062 72.8188 13.2173C72.9555 13.3727 73.046 13.5633 73.0799 13.7675C74.2506 22.6275 73.9147 31.6217 72.0865 40.3697C68.0777 58.9455 57.1415 71.5521 40.4382 76.8268C40.322 76.8654 40.2001 76.8832 40.0777 76.8796ZM8.96566 14.7785C7.9796 23.1813 8.34764 31.6879 10.0558 39.9741C13.9239 57.873 23.9986 69.5389 39.9986 74.673C55.9898 69.5389 66.0646 57.873 69.9327 39.9741C71.6408 31.6879 72.0089 23.1813 71.0228 14.7785L39.9986 5.60046L8.96566 14.7785Z" fill="#0C0A0A"/>
<path d="M39.9114 14.7517C39.6238 14.7493 39.3488 14.6335 39.1463 14.4293C38.9437 14.2251 38.8301 13.9491 38.8301 13.6615V4.48352C38.8545 4.21244 38.9794 3.96029 39.1804 3.77666C39.3813 3.59304 39.6436 3.49121 39.9158 3.49121C40.188 3.49121 40.4503 3.59304 40.6512 3.77666C40.8521 3.96029 40.9771 4.21244 41.0015 4.48352V13.6615C41.0015 13.8047 40.9733 13.9465 40.9185 14.0787C40.8637 14.211 40.7834 14.3311 40.6822 14.4324C40.581 14.5336 40.4608 14.6139 40.3286 14.6687C40.1963 14.7235 40.0546 14.7517 39.9114 14.7517Z" fill="#0C0A0A"/>
<path d="M39.9134 74.0664C39.7702 74.0652 39.6287 74.0359 39.4969 73.9801C39.3651 73.9242 39.2455 73.8429 39.1451 73.7409C39.0447 73.6389 38.9654 73.518 38.9117 73.3853C38.858 73.2526 38.8309 73.1106 38.8321 72.9675V62.6466C38.8565 62.3755 38.9814 62.1234 39.1823 61.9398C39.3833 61.7561 39.6456 61.6543 39.9178 61.6543C40.19 61.6543 40.4523 61.7561 40.6532 61.9398C40.8541 62.1234 40.9791 62.3755 41.0035 62.6466V72.9675C41.0047 73.1114 40.9773 73.2541 40.9231 73.3874C40.8688 73.5206 40.7887 73.6418 40.6873 73.744C40.586 73.8462 40.4654 73.9272 40.3326 73.9826C40.1998 74.0379 40.0573 74.0664 39.9134 74.0664Z" fill="#0C0A0A"/>
<path d="M39.9128 56.5013C39.7476 56.5022 39.5847 56.463 39.4381 56.387L21.6974 47.8508C21.5125 47.7613 21.3566 47.6214 21.2477 47.4472C21.1389 47.273 21.0814 47.0716 21.082 46.8662V27.7716C21.0813 27.5878 21.1275 27.4068 21.2161 27.2458C21.3048 27.0847 21.4331 26.9489 21.5889 26.8513C21.7446 26.7536 21.9227 26.6972 22.1063 26.6875C22.2899 26.6778 22.4729 26.7151 22.6381 26.7958L40.3875 35.3409C40.5731 35.4271 40.7299 35.565 40.839 35.7381C40.9482 35.9112 41.0051 36.1121 41.0029 36.3167V55.3848C40.9957 55.5618 40.9455 55.7343 40.8567 55.8874C40.7678 56.0406 40.643 56.1698 40.493 56.264C40.3255 56.3956 40.1246 56.4778 39.9128 56.5013ZM23.2535 46.1804L38.8227 53.6793V36.976L23.2535 29.5035V46.1804Z" fill="#0C0A0A"/>
<path d="M39.9128 37.3893C39.7488 37.3889 39.5868 37.3529 39.4381 37.2839L21.6974 28.7388C21.5132 28.6508 21.3576 28.5125 21.2487 28.3398C21.1398 28.1671 21.082 27.9671 21.082 27.763C21.0814 27.5575 21.1389 27.3561 21.2477 27.1819C21.3566 27.0077 21.5125 26.8678 21.6974 26.7784L39.4469 18.2509C39.5949 18.1793 39.7572 18.1421 39.9216 18.1421C40.086 18.1421 40.2483 18.1793 40.3963 18.2509L58.137 26.7871C58.3219 26.8766 58.4778 27.0165 58.5867 27.1907C58.6955 27.3649 58.753 27.5663 58.7524 27.7718C58.7524 27.9759 58.6946 28.1759 58.5857 28.3486C58.4768 28.5213 58.3212 28.6596 58.137 28.7476L40.3875 37.2751C40.2395 37.3472 40.0775 37.3862 39.9128 37.3893ZM24.6776 27.719L39.9128 35.0948L55.1568 27.7806L39.9216 20.4399L24.6776 27.719Z" fill="#0C0A0A"/>
<path d="M39.9124 56.5011C39.7075 56.4985 39.5071 56.4408 39.3322 56.3341C39.1822 56.24 39.0573 56.1108 38.9685 55.9576C38.8797 55.8044 38.8295 55.6319 38.8223 55.455V36.3165C38.8223 36.1124 38.88 35.9124 38.9889 35.7397C39.0979 35.567 39.2534 35.4287 39.4377 35.3407L57.1871 26.7956C57.3523 26.7149 57.5353 26.6777 57.7189 26.6874C57.9025 26.6971 58.0806 26.7534 58.2363 26.8511C58.3921 26.9488 58.5204 27.0845 58.609 27.2456C58.6977 27.4066 58.7439 27.5876 58.7431 27.7715V46.866C58.7438 47.0714 58.6863 47.2728 58.5775 47.447C58.4686 47.6212 58.3127 47.7611 58.1278 47.8506L40.3871 56.3869C40.2404 56.4628 40.0775 56.502 39.9124 56.5011ZM41.0025 37.0022V53.7055L56.5717 46.2066V29.5033L41.0025 37.0022Z" fill="#0C0A0A"/>
<path d="M31.0409 33.1256C30.8373 33.1278 30.6372 33.073 30.4632 32.9673C30.2892 32.8617 30.1482 32.7094 30.0563 32.5278C29.9347 32.2673 29.92 31.9696 30.0153 31.6985C30.1106 31.4273 30.3084 31.2043 30.5662 31.0772L48.3508 22.5322C48.5998 22.4684 48.8633 22.4946 49.0948 22.6062C49.3263 22.7178 49.5109 22.9076 49.6161 23.1421C49.7212 23.3766 49.7401 23.6407 49.6695 23.8878C49.5988 24.1349 49.4432 24.3491 49.2299 24.4926L31.5068 33.0113C31.3633 33.0872 31.2033 33.1265 31.0409 33.1256Z" fill="#0C0A0A"/>
<path d="M33.4063 41.5035C33.2412 41.5034 33.0786 41.4642 32.9315 41.3892L27.7008 38.8749C27.5585 38.8218 27.4289 38.7395 27.3203 38.6333C27.2116 38.5271 27.1264 38.3994 27.07 38.2584C27.0137 38.1173 26.9874 37.966 26.9929 37.8142C26.9984 37.6625 27.0356 37.5135 27.102 37.3769C27.1685 37.2403 27.2627 37.1191 27.3788 37.0211C27.4948 36.9231 27.63 36.8504 27.7758 36.8076C27.9216 36.7649 28.0746 36.7532 28.2252 36.7731C28.3758 36.793 28.5206 36.8442 28.6502 36.9233L33.925 39.4376C34.1477 39.5482 34.326 39.7317 34.4301 39.9576C34.5342 40.1835 34.558 40.4381 34.4974 40.6794C34.4368 40.9206 34.2956 41.1339 34.0971 41.2838C33.8986 41.4337 33.6549 41.5112 33.4063 41.5035Z" fill="#0C0A0A"/>
</svg>
