<svg width="80" height="80" viewBox="0 0 80 80" fill="none" xmlns="http://www.w3.org/2000/svg">
<path d="M1.4458 48.2927H48.1417V71.4313L2.35857 70.4557L1.4458 65.3659V59.5122V48.2927Z" fill="white"/>
<path d="M24.7173 70.7628C24.7173 73.1875 21.8683 79.0555 19.4587 78.0799C16.5671 80.0311 12.7117 73.6896 13.6329 70.7628C12.7117 67.836 16.8048 63.4457 18.9341 63.4457C21.3864 62.9579 24.7173 68.3381 24.7173 70.7628Z" fill="#052952"/>
<path d="M48.1927 17.561V13.6585H56.1606H60.6425L62.6506 15.122L64.6265 17.561L70.8434 30.2439L74.0883 42.9268L76.5783 56.0976L77.5903 62.9268V69.2683L74.6988 70.7317L70.3614 71.2195H62.6506L48.1927 70.2439V43.9024V17.561Z" fill="white"/>
<path d="M2.39505 3.03404L13.494 0.975609H25.0603L36.6265 1.95122L47.7109 3.41463L48.1928 47.8049H0.963867L0.963872 25.1622V6.63629L2.39505 3.03404Z" fill="#166BAC"/>
<path d="M69.3976 71.2195C69.3976 75.53 66.8084 79.0244 63.6144 79.0244C60.4205 79.0244 57.8313 75.53 57.8313 71.2195C57.8313 66.909 60.4205 63.4146 63.6144 63.4146C66.8084 63.4146 69.3976 66.909 69.3976 71.2195Z" fill="#052952"/>
<path d="M24.7301 71.2198C24.7301 73.2897 24.1041 75.2748 22.9899 76.7385C21.8756 78.2021 20.3644 79.0244 18.7887 79.0244C17.2129 79.0244 15.7017 78.2021 14.5874 76.7385C13.4732 75.2748 12.8472 73.2897 12.8472 71.2198M24.7301 71.2198C24.7301 69.1499 24.1041 67.1647 22.9899 65.7011C21.8756 64.2374 20.3644 63.4151 18.7887 63.4151C17.2129 63.4151 15.7017 64.2374 14.5874 65.7011C13.4732 67.1647 12.8472 69.1499 12.8472 71.2198M24.7301 71.2198H48.4958M12.8472 71.2198H5.42043C4.2386 71.2198 3.10518 70.6031 2.26951 69.5053C1.43383 68.4076 0.964351 66.9187 0.964351 65.3663V47.8059M48.4958 71.2198H57.408M48.4958 71.2198V47.8059M0.964351 47.8059V8.08032C0.958056 6.65555 1.35435 5.27838 2.07654 4.21534C2.79873 3.1523 3.79546 2.47898 4.87381 2.3257C18.0759 0.525581 31.3843 0.525581 44.5864 2.3257C46.8243 2.62748 48.4958 5.12496 48.4958 8.08032V13.0649M0.964351 47.8059H48.4958M69.2909 71.2198C69.2909 73.2897 68.6649 75.2748 67.5506 76.7385C66.4364 78.2021 64.9252 79.0244 63.3494 79.0244C61.7737 79.0244 60.2624 78.2021 59.1482 76.7385C58.034 75.2748 57.408 73.2897 57.408 71.2198M69.2909 71.2198C69.2909 69.1499 68.6649 67.1647 67.5506 65.7011C66.4364 64.2374 64.9252 63.4151 63.3494 63.4151C61.7737 63.4151 60.2624 64.2374 59.1482 65.7011C58.034 67.1647 57.408 69.1499 57.408 71.2198M69.2909 71.2198H73.7469C76.2067 71.2198 78.2188 68.5974 78.0644 65.3715C77.2684 48.189 72.8633 31.6324 65.3378 17.5395C64.621 16.2194 63.6852 15.1306 62.601 14.3554C61.5168 13.5802 60.3126 13.1389 59.0795 13.0649H48.4958M48.4958 13.0649V47.8059" stroke="black" stroke-width="1.5" stroke-linecap="round" stroke-linejoin="round"/>
</svg>
